<?xml version="1.0" encoding="UTF-8" standalone="no"?>
<!DOCTYPE svg PUBLIC "-//W3C//DTD SVG 1.1//EN"
 "http://www.w3.org/Graphics/SVG/1.1/DTD/svg11.dtd">
<!-- Generated by graphviz version 2.49.3 (0)
 -->
<!-- Pages: 1 -->
<svg width="170pt" height="566pt"
 viewBox="0.00 0.00 170.30 566.00" xmlns="http://www.w3.org/2000/svg" xmlns:xlink="http://www.w3.org/1999/xlink">
<g id="graph0" class="graph" transform="scale(1 1) rotate(0) translate(4 562)">
<polygon fill="white" stroke="transparent" points="-4,4 -4,-562 166.3,-562 166.3,4 -4,4"/>
<!-- 17334465354090633708 -->
<g id="node1" class="node">
<title>17334465354090633708</title>
<ellipse fill="none" stroke="black" cx="48.3" cy="-540" rx="27" ry="18"/>
<text text-anchor="middle" x="48.3" y="-536.3" font-family="Times,serif" font-size="14.00">ba</text>
</g>
<!-- 16804349037954502351 -->
<g id="node3" class="node">
<title>16804349037954502351</title>
<ellipse fill="none" stroke="black" cx="31.3" cy="-453" rx="27" ry="18"/>
<text text-anchor="middle" x="31.3" y="-449.3" font-family="Times,serif" font-size="14.00">bab</text>
</g>
<!-- 17334465354090633708&#45;&gt;16804349037954502351 -->
<g id="edge9" class="edge">
<title>17334465354090633708&#45;&gt;16804349037954502351</title>
<path fill="none" stroke="black" stroke-width="0.9" d="M37.63,-523.31C34.27,-517.51 31,-510.7 29.3,-504 27.44,-496.67 27.07,-488.55 27.4,-481.02"/>
<polygon fill="black" stroke="black" stroke-width="0.9" points="30.9,-481.17 28.24,-470.92 23.93,-480.59 30.9,-481.17"/>
<text text-anchor="middle" x="38.3" y="-492.8" font-family="Times,serif" font-size="14.00">0.9</text>
</g>
<!-- 13740064308175729651 -->
<g id="node6" class="node">
<title>13740064308175729651</title>
<ellipse fill="none" stroke="black" cx="82.3" cy="-192" rx="27" ry="18"/>
<text text-anchor="middle" x="82.3" y="-188.3" font-family="Times,serif" font-size="14.00">a</text>
</g>
<!-- 17334465354090633708&#45;&gt;13740064308175729651 -->
<g id="edge8" class="edge">
<title>17334465354090633708&#45;&gt;13740064308175729651</title>
<path fill="none" stroke="black" stroke-width="0.1" d="M60.81,-523.91C64.94,-518.06 69.05,-511.07 71.3,-504 87.96,-451.69 85.1,-286.41 83.21,-220.52"/>
<polygon fill="black" stroke="black" stroke-width="0.1" points="86.7,-220.01 82.9,-210.12 79.7,-220.22 86.7,-220.01"/>
<text text-anchor="middle" x="93.3" y="-362.3" font-family="Times,serif" font-size="14.00">0.1</text>
</g>
<!-- 189185847607106207 -->
<g id="node2" class="node">
<title>189185847607106207</title>
<ellipse fill="none" stroke="black" cx="27.3" cy="-279" rx="27" ry="18"/>
<text text-anchor="middle" x="27.3" y="-275.3" font-family="Times,serif" font-size="14.00">d</text>
</g>
<!-- 189185847607106207&#45;&gt;13740064308175729651 -->
<g id="edge7" class="edge">
<title>189185847607106207&#45;&gt;13740064308175729651</title>
<path fill="none" stroke="black" d="M37.64,-262.01C45.79,-249.43 57.27,-231.68 66.55,-217.33"/>
<polygon fill="black" stroke="black" points="69.5,-219.21 72,-208.92 63.63,-215.41 69.5,-219.21"/>
<text text-anchor="middle" x="60.8" y="-231.8" font-family="Times,serif" font-size="14.00">1</text>
</g>
<!-- 16804349037954502351&#45;&gt;17334465354090633708 -->
<g id="edge10" class="edge">
<title>16804349037954502351&#45;&gt;17334465354090633708</title>
<path fill="none" stroke="black" stroke-width="0.8" d="M40.39,-470.24C43.15,-475.99 45.84,-482.62 47.3,-489 48.93,-496.17 49.6,-504.06 49.75,-511.42"/>
<polygon fill="black" stroke="black" stroke-width="0.8" points="46.25,-511.64 49.67,-521.67 53.25,-511.69 46.25,-511.64"/>
<text text-anchor="middle" x="58.3" y="-492.8" font-family="Times,serif" font-size="14.00">0.8</text>
</g>
<!-- 1712140312166367496 -->
<g id="node4" class="node">
<title>1712140312166367496</title>
<ellipse fill="none" stroke="black" cx="27.3" cy="-366" rx="27.1" ry="18"/>
<text text-anchor="middle" x="27.3" y="-362.3" font-family="Times,serif" font-size="14.00">babc</text>
</g>
<!-- 16804349037954502351&#45;&gt;1712140312166367496 -->
<g id="edge11" class="edge">
<title>16804349037954502351&#45;&gt;1712140312166367496</title>
<path fill="none" stroke="black" stroke-width="0.2" d="M30.49,-434.8C29.94,-423.16 29.21,-407.55 28.58,-394.24"/>
<polygon fill="black" stroke="black" stroke-width="0.2" points="32.07,-394 28.11,-384.18 25.08,-394.33 32.07,-394"/>
<text text-anchor="middle" x="39.3" y="-405.8" font-family="Times,serif" font-size="14.00">0.2</text>
</g>
<!-- 1712140312166367496&#45;&gt;189185847607106207 -->
<g id="edge1" class="edge">
<title>1712140312166367496&#45;&gt;189185847607106207</title>
<path fill="none" stroke="black" d="M27.3,-347.8C27.3,-336.16 27.3,-320.55 27.3,-307.24"/>
<polygon fill="black" stroke="black" points="30.8,-307.18 27.3,-297.18 23.8,-307.18 30.8,-307.18"/>
<text text-anchor="middle" x="30.8" y="-318.8" font-family="Times,serif" font-size="14.00">1</text>
</g>
<!-- 14550334728282291830 -->
<g id="node5" class="node">
<title>14550334728282291830</title>
<ellipse fill="none" stroke="black" cx="86.3" cy="-105" rx="27" ry="18"/>
<text text-anchor="middle" x="86.3" y="-101.3" font-family="Times,serif" font-size="14.00">b</text>
</g>
<!-- 14550334728282291830&#45;&gt;17334465354090633708 -->
<g id="edge6" class="edge">
<title>14550334728282291830&#45;&gt;17334465354090633708</title>
<path fill="none" stroke="black" stroke-width="0.8" d="M105.07,-118.24C121.56,-130.21 144.39,-150.09 154.3,-174 160.42,-188.78 156.11,-194.1 154.3,-210 139.09,-343.25 153.74,-388.07 86.3,-504 83.04,-509.6 78.6,-514.82 73.9,-519.44"/>
<polygon fill="black" stroke="black" stroke-width="0.8" points="71.53,-516.86 66.44,-526.15 76.21,-522.06 71.53,-516.86"/>
<text text-anchor="middle" x="153.3" y="-318.8" font-family="Times,serif" font-size="14.00">0.8</text>
</g>
<!-- 16827178101014766047 -->
<g id="node7" class="node">
<title>16827178101014766047</title>
<ellipse fill="none" stroke="black" cx="27.3" cy="-18" rx="27" ry="18"/>
<text text-anchor="middle" x="27.3" y="-14.3" font-family="Times,serif" font-size="14.00">c</text>
</g>
<!-- 14550334728282291830&#45;&gt;16827178101014766047 -->
<g id="edge5" class="edge">
<title>14550334728282291830&#45;&gt;16827178101014766047</title>
<path fill="none" stroke="black" stroke-width="0.2" d="M75.48,-88.41C66.72,-75.79 54.22,-57.79 44.15,-43.28"/>
<polygon fill="black" stroke="black" stroke-width="0.2" points="46.83,-41 38.25,-34.78 41.08,-44.99 46.83,-41"/>
<text text-anchor="middle" x="69.3" y="-57.8" font-family="Times,serif" font-size="14.00">0.2</text>
</g>
<!-- 13740064308175729651&#45;&gt;14550334728282291830 -->
<g id="edge3" class="edge">
<title>13740064308175729651&#45;&gt;14550334728282291830</title>
<path fill="none" stroke="black" stroke-width="0.9" d="M83.11,-173.8C83.65,-162.16 84.39,-146.55 85.02,-133.24"/>
<polygon fill="black" stroke="black" stroke-width="0.9" points="88.52,-133.33 85.49,-123.18 81.52,-133 88.52,-133.33"/>
<text text-anchor="middle" x="93.3" y="-144.8" font-family="Times,serif" font-size="14.00">0.9</text>
</g>
<!-- 13740064308175729651&#45;&gt;13740064308175729651 -->
<g id="edge2" class="edge">
<title>13740064308175729651&#45;&gt;13740064308175729651</title>
<path fill="none" stroke="black" stroke-width="0.1" d="M106.83,-199.75C117.81,-200.49 127.3,-197.91 127.3,-192 127.3,-188.03 123.01,-185.56 116.87,-184.59"/>
<polygon fill="black" stroke="black" stroke-width="0.1" points="116.94,-181.09 106.83,-184.25 116.7,-188.09 116.94,-181.09"/>
<text text-anchor="middle" x="136.3" y="-188.3" font-family="Times,serif" font-size="14.00">0.1</text>
</g>
<!-- 16827178101014766047&#45;&gt;189185847607106207 -->
<g id="edge4" class="edge">
<title>16827178101014766047&#45;&gt;189185847607106207</title>
<path fill="none" stroke="black" d="M27.3,-36.32C27.3,-80.38 27.3,-197.01 27.3,-250.49"/>
<polygon fill="black" stroke="black" points="23.8,-250.6 27.3,-260.6 30.8,-250.6 23.8,-250.6"/>
<text text-anchor="middle" x="30.8" y="-144.8" font-family="Times,serif" font-size="14.00">1</text>
</g>
</g>
</svg>
