<?xml version="1.0" encoding="UTF-8" standalone="no"?>
<!DOCTYPE svg PUBLIC "-//W3C//DTD SVG 1.1//EN"
 "http://www.w3.org/Graphics/SVG/1.1/DTD/svg11.dtd">
<!-- Generated by graphviz version 2.49.2 (0)
 -->
<!-- Pages: 1 -->
<svg width="258pt" height="240pt"
 viewBox="0.00 0.00 257.97 240.24" xmlns="http://www.w3.org/2000/svg" xmlns:xlink="http://www.w3.org/1999/xlink">
<g id="graph0" class="graph" transform="scale(1 1) rotate(0) translate(4 236.24)">
<polygon fill="white" stroke="transparent" points="-4,4 -4,-236.24 253.97,-236.24 253.97,4 -4,4"/>
<!-- 5510520460513231734 -->
<g id="node1" class="node">
<title>5510520460513231734</title>
<ellipse fill="none" stroke="black" cx="84.94" cy="-18" rx="27" ry="18"/>
<text text-anchor="middle" x="84.94" y="-14.3" font-family="Times,serif" font-size="14.00">8</text>
</g>
<!-- 9108380693033140644 -->
<g id="node8" class="node">
<title>9108380693033140644</title>
<ellipse fill="none" stroke="black" cx="165.98" cy="-18.36" rx="27" ry="18"/>
<text text-anchor="middle" x="165.98" y="-14.66" font-family="Times,serif" font-size="14.00">1</text>
</g>
<!-- 5510520460513231734&#45;&gt;9108380693033140644 -->
<g id="edge4" class="edge">
<title>5510520460513231734&#45;&gt;9108380693033140644</title>
<path fill="none" stroke="black" d="M112.38,-18.12C117.58,-18.14 123.11,-18.17 128.56,-18.19"/>
<polygon fill="black" stroke="black" points="128.83,-21.69 138.85,-18.24 128.86,-14.69 128.83,-21.69"/>
<text text-anchor="middle" x="116.97" y="-21.96" font-family="Times,serif" font-size="14.00">1</text>
</g>
<!-- 9543954270121841530 -->
<g id="node2" class="node">
<title>9543954270121841530</title>
<ellipse fill="none" stroke="black" cx="222.97" cy="-75.97" rx="27" ry="18"/>
<text text-anchor="middle" x="222.97" y="-72.27" font-family="Times,serif" font-size="14.00">2</text>
</g>
<!-- 10475910883591376841 -->
<g id="node7" class="node">
<title>10475910883591376841</title>
<ellipse fill="none" stroke="black" cx="222.37" cy="-157.01" rx="27" ry="18"/>
<text text-anchor="middle" x="222.37" y="-153.31" font-family="Times,serif" font-size="14.00">3</text>
</g>
<!-- 9543954270121841530&#45;&gt;10475910883591376841 -->
<g id="edge2" class="edge">
<title>9543954270121841530&#45;&gt;10475910883591376841</title>
<path fill="none" stroke="black" d="M222.83,-94.36C222.76,-104.48 222.66,-117.26 222.58,-128.63"/>
<polygon fill="black" stroke="black" points="219.08,-128.95 222.51,-138.97 226.08,-129 219.08,-128.95"/>
<text text-anchor="middle" x="219.21" y="-115.3" font-family="Times,serif" font-size="14.00">1</text>
</g>
<!-- 12548409172171111871 -->
<g id="node3" class="node">
<title>12548409172171111871</title>
<ellipse fill="none" stroke="black" cx="27.65" cy="-75.29" rx="27" ry="18"/>
<text text-anchor="middle" x="27.65" y="-71.59" font-family="Times,serif" font-size="14.00">7</text>
</g>
<!-- 12548409172171111871&#45;&gt;5510520460513231734 -->
<g id="edge6" class="edge">
<title>12548409172171111871&#45;&gt;5510520460513231734</title>
<path fill="none" stroke="black" d="M42.7,-60.24C48.71,-54.23 55.75,-47.19 62.34,-40.6"/>
<polygon fill="black" stroke="black" points="65.19,-42.7 69.79,-33.15 60.24,-37.75 65.19,-42.7"/>
<text text-anchor="middle" x="49.02" y="-39.22" font-family="Times,serif" font-size="14.00">1</text>
</g>
<!-- 9514348173325862181 -->
<g id="node4" class="node">
<title>9514348173325862181</title>
<ellipse fill="none" stroke="black" cx="83.98" cy="-213.95" rx="27" ry="18"/>
<text text-anchor="middle" x="83.98" y="-210.25" font-family="Times,serif" font-size="14.00">5</text>
</g>
<!-- 5761619195278038434 -->
<g id="node6" class="node">
<title>5761619195278038434</title>
<ellipse fill="none" stroke="black" cx="27" cy="-156.32" rx="27" ry="18"/>
<text text-anchor="middle" x="27" y="-152.62" font-family="Times,serif" font-size="14.00">6</text>
</g>
<!-- 9514348173325862181&#45;&gt;5761619195278038434 -->
<g id="edge7" class="edge">
<title>9514348173325862181&#45;&gt;5761619195278038434</title>
<path fill="none" stroke="black" d="M69.01,-198.81C63.04,-192.77 56.03,-185.68 49.47,-179.05"/>
<polygon fill="black" stroke="black" points="51.59,-176.21 42.07,-171.56 46.61,-181.13 51.59,-176.21"/>
<text text-anchor="middle" x="62.74" y="-177.73" font-family="Times,serif" font-size="14.00">1</text>
</g>
<!-- 15253010036835121515 -->
<g id="node5" class="node">
<title>15253010036835121515</title>
<ellipse fill="none" stroke="black" cx="165.02" cy="-214.24" rx="27" ry="18"/>
<text text-anchor="middle" x="165.02" y="-210.54" font-family="Times,serif" font-size="14.00">4</text>
</g>
<!-- 15253010036835121515&#45;&gt;9514348173325862181 -->
<g id="edge3" class="edge">
<title>15253010036835121515&#45;&gt;9514348173325862181</title>
<path fill="none" stroke="black" d="M137.58,-214.14C132.38,-214.12 126.85,-214.1 121.4,-214.08"/>
<polygon fill="black" stroke="black" points="121.13,-210.58 111.11,-214.04 121.1,-217.58 121.13,-210.58"/>
<text text-anchor="middle" x="125.99" y="-217.91" font-family="Times,serif" font-size="14.00">1</text>
</g>
<!-- 5761619195278038434&#45;&gt;12548409172171111871 -->
<g id="edge8" class="edge">
<title>5761619195278038434&#45;&gt;12548409172171111871</title>
<path fill="none" stroke="black" d="M27.15,-137.93C27.23,-127.81 27.33,-115.04 27.42,-103.66"/>
<polygon fill="black" stroke="black" points="30.93,-103.35 27.51,-93.33 23.93,-103.3 30.93,-103.35"/>
<text text-anchor="middle" x="23.79" y="-124.6" font-family="Times,serif" font-size="14.00">1</text>
</g>
<!-- 10475910883591376841&#45;&gt;15253010036835121515 -->
<g id="edge5" class="edge">
<title>10475910883591376841&#45;&gt;15253010036835121515</title>
<path fill="none" stroke="black" d="M207.3,-172.04C201.29,-178.04 194.24,-185.08 187.64,-191.66"/>
<polygon fill="black" stroke="black" points="184.79,-189.56 180.19,-199.1 189.74,-194.52 184.79,-189.56"/>
<text text-anchor="middle" x="193.97" y="-185.65" font-family="Times,serif" font-size="14.00">1</text>
</g>
<!-- 9108380693033140644&#45;&gt;9543954270121841530 -->
<g id="edge1" class="edge">
<title>9108380693033140644&#45;&gt;9543954270121841530</title>
<path fill="none" stroke="black" d="M180.95,-33.49C186.92,-39.53 193.93,-46.62 200.49,-53.25"/>
<polygon fill="black" stroke="black" points="198.38,-56.09 207.9,-60.74 203.35,-51.16 198.38,-56.09"/>
<text text-anchor="middle" x="187.22" y="-47.17" font-family="Times,serif" font-size="14.00">1</text>
</g>
</g>
</svg>
