<?xml version="1.0" encoding="UTF-8" standalone="no"?>
<!DOCTYPE svg PUBLIC "-//W3C//DTD SVG 1.1//EN"
 "http://www.w3.org/Graphics/SVG/1.1/DTD/svg11.dtd">
<!-- Generated by graphviz version 2.50.0 (0)
 -->
<!-- Pages: 1 -->
<svg width="262pt" height="244pt"
 viewBox="0.00 0.00 262.14 244.12" xmlns="http://www.w3.org/2000/svg" xmlns:xlink="http://www.w3.org/1999/xlink">
<g id="graph0" class="graph" transform="scale(1 1) rotate(0) translate(4 240.12)">
<polygon fill="white" stroke="transparent" points="-4,4 -4,-240.12 258.14,-240.12 258.14,4 -4,4"/>
<!-- 18346284928877751465 -->
<g id="node1" class="node">
<title>18346284928877751465</title>
<ellipse fill="none" stroke="black" cx="27" cy="-129.23" rx="27" ry="18"/>
<text text-anchor="middle" x="27" y="-125.53" font-family="Times,serif" font-size="14.00">22</text>
</g>
<!-- 10475910883591376841 -->
<g id="node6" class="node">
<title>10475910883591376841</title>
<ellipse fill="none" stroke="black" cx="92.7" cy="-161.16" rx="27" ry="18"/>
<text text-anchor="middle" x="92.7" y="-157.46" font-family="Times,serif" font-size="14.00">3</text>
</g>
<!-- 18346284928877751465&#45;&gt;10475910883591376841 -->
<g id="edge5" class="edge">
<title>18346284928877751465&#45;&gt;10475910883591376841</title>
<path fill="none" stroke="black" d="M48.88,-139.86C52.93,-141.83 57.24,-143.93 61.52,-146"/>
<polygon fill="black" stroke="black" points="60.17,-149.24 70.69,-150.46 63.23,-142.94 60.17,-149.24"/>
<text text-anchor="middle" x="58.7" y="-146.73" font-family="Times,serif" font-size="14.00">1</text>
</g>
<!-- 9108380693033140644 -->
<g id="node2" class="node">
<title>9108380693033140644</title>
<ellipse fill="none" stroke="black" cx="161.45" cy="-74.88" rx="27" ry="18"/>
<text text-anchor="middle" x="161.45" y="-71.18" font-family="Times,serif" font-size="14.00">1</text>
</g>
<!-- 9543954270121841530 -->
<g id="node3" class="node">
<title>9543954270121841530</title>
<ellipse fill="none" stroke="black" cx="84.03" cy="-83.75" rx="27" ry="18"/>
<text text-anchor="middle" x="84.03" y="-80.05" font-family="Times,serif" font-size="14.00">2</text>
</g>
<!-- 9108380693033140644&#45;&gt;9543954270121841530 -->
<g id="edge7" class="edge">
<title>9108380693033140644&#45;&gt;9543954270121841530</title>
<path fill="none" stroke="black" stroke-width="0.8" d="M134.81,-77.93C130.31,-78.44 125.57,-78.99 120.86,-79.53"/>
<polygon fill="black" stroke="black" stroke-width="0.8" points="120.26,-76.07 110.73,-80.69 121.06,-83.03 120.26,-76.07"/>
<text text-anchor="middle" x="123.34" y="-67.53" font-family="Times,serif" font-size="14.00">0.8</text>
</g>
<!-- 12353200903459307177 -->
<g id="node7" class="node">
<title>12353200903459307177</title>
<ellipse fill="none" stroke="black" cx="115.57" cy="-18" rx="27" ry="18"/>
<text text-anchor="middle" x="115.57" y="-14.3" font-family="Times,serif" font-size="14.00">11</text>
</g>
<!-- 9108380693033140644&#45;&gt;12353200903459307177 -->
<g id="edge8" class="edge">
<title>9108380693033140644&#45;&gt;12353200903459307177</title>
<path fill="none" stroke="black" stroke-width="0.2" d="M148.43,-58.73C144.23,-53.52 139.48,-47.63 134.92,-41.99"/>
<polygon fill="black" stroke="black" stroke-width="0.2" points="137.47,-39.57 128.47,-33.99 132.02,-43.97 137.47,-39.57"/>
<text text-anchor="middle" x="150.67" y="-39.16" font-family="Times,serif" font-size="14.00">0.2</text>
</g>
<!-- 9543954270121841530&#45;&gt;18346284928877751465 -->
<g id="edge2" class="edge">
<title>9543954270121841530&#45;&gt;18346284928877751465</title>
<path fill="none" stroke="black" stroke-width="0.2" d="M66.61,-97.64C62.27,-101.1 57.52,-104.89 52.87,-108.6"/>
<polygon fill="black" stroke="black" stroke-width="0.2" points="50.35,-106.13 44.71,-115.11 54.71,-111.61 50.35,-106.13"/>
<text text-anchor="middle" x="68.74" y="-106.92" font-family="Times,serif" font-size="14.00">0.2</text>
</g>
<!-- 9543954270121841530&#45;&gt;10475910883591376841 -->
<g id="edge1" class="edge">
<title>9543954270121841530&#45;&gt;10475910883591376841</title>
<path fill="none" stroke="black" stroke-width="0.8" d="M86.04,-101.7C87.09,-111.01 88.38,-122.6 89.56,-133.07"/>
<polygon fill="black" stroke="black" stroke-width="0.8" points="86.08,-133.49 90.67,-143.03 93.04,-132.71 86.08,-133.49"/>
<text text-anchor="middle" x="96.8" y="-121.19" font-family="Times,serif" font-size="14.00">0.8</text>
</g>
<!-- 17128994300635734121 -->
<g id="node4" class="node">
<title>17128994300635734121</title>
<ellipse fill="none" stroke="black" cx="138.26" cy="-218.12" rx="27" ry="18"/>
<text text-anchor="middle" x="138.26" y="-214.42" font-family="Times,serif" font-size="14.00">33</text>
</g>
<!-- 15253010036835121515 -->
<g id="node5" class="node">
<title>15253010036835121515</title>
<ellipse fill="none" stroke="black" cx="170.2" cy="-152.41" rx="27" ry="18"/>
<text text-anchor="middle" x="170.2" y="-148.71" font-family="Times,serif" font-size="14.00">4</text>
</g>
<!-- 17128994300635734121&#45;&gt;15253010036835121515 -->
<g id="edge9" class="edge">
<title>17128994300635734121&#45;&gt;15253010036835121515</title>
<path fill="none" stroke="black" d="M146.65,-200.86C149.93,-194.12 153.76,-186.25 157.36,-178.83"/>
<polygon fill="black" stroke="black" points="160.53,-180.32 161.76,-169.79 154.24,-177.25 160.53,-180.32"/>
<text text-anchor="middle" x="148.51" y="-178.64" font-family="Times,serif" font-size="14.00">1</text>
</g>
<!-- 15253010036835121515&#45;&gt;9108380693033140644 -->
<g id="edge4" class="edge">
<title>15253010036835121515&#45;&gt;9108380693033140644</title>
<path fill="none" stroke="black" stroke-width="0.8" d="M168.18,-134.43C167.12,-125.1 165.81,-113.5 164.63,-103.01"/>
<polygon fill="black" stroke="black" stroke-width="0.8" points="168.1,-102.58 163.5,-93.03 161.15,-103.36 168.1,-102.58"/>
<text text-anchor="middle" x="157.4" y="-122.52" font-family="Times,serif" font-size="14.00">0.8</text>
</g>
<!-- 1324720615059849047 -->
<g id="node8" class="node">
<title>1324720615059849047</title>
<ellipse fill="none" stroke="black" cx="227.14" cy="-106.67" rx="27" ry="18"/>
<text text-anchor="middle" x="227.14" y="-102.97" font-family="Times,serif" font-size="14.00">44</text>
</g>
<!-- 15253010036835121515&#45;&gt;1324720615059849047 -->
<g id="edge3" class="edge">
<title>15253010036835121515&#45;&gt;1324720615059849047</title>
<path fill="none" stroke="black" stroke-width="0.2" d="M187.59,-138.44C192.12,-134.81 197.09,-130.82 201.93,-126.93"/>
<polygon fill="black" stroke="black" stroke-width="0.2" points="204.25,-129.55 209.85,-120.56 199.86,-124.1 204.25,-129.55"/>
<text text-anchor="middle" x="185.76" y="-121.48" font-family="Times,serif" font-size="14.00">0.2</text>
</g>
<!-- 10475910883591376841&#45;&gt;17128994300635734121 -->
<g id="edge12" class="edge">
<title>10475910883591376841&#45;&gt;17128994300635734121</title>
<path fill="none" stroke="black" stroke-width="0.2" d="M105.63,-177.33C109.8,-182.55 114.52,-188.44 119.05,-194.1"/>
<polygon fill="black" stroke="black" stroke-width="0.2" points="116.47,-196.48 125.45,-202.11 121.94,-192.11 116.47,-196.48"/>
<text text-anchor="middle" x="103.34" y="-189.52" font-family="Times,serif" font-size="14.00">0.2</text>
</g>
<!-- 10475910883591376841&#45;&gt;15253010036835121515 -->
<g id="edge11" class="edge">
<title>10475910883591376841&#45;&gt;15253010036835121515</title>
<path fill="none" stroke="black" stroke-width="0.8" d="M119.37,-158.15C123.88,-157.64 128.63,-157.11 133.34,-156.57"/>
<polygon fill="black" stroke="black" stroke-width="0.8" points="133.94,-160.03 143.48,-155.43 133.15,-153.07 133.94,-160.03"/>
<text text-anchor="middle" x="130.86" y="-146.16" font-family="Times,serif" font-size="14.00">0.8</text>
</g>
<!-- 12353200903459307177&#45;&gt;9543954270121841530 -->
<g id="edge10" class="edge">
<title>12353200903459307177&#45;&gt;9543954270121841530</title>
<path fill="none" stroke="black" d="M107.28,-35.27C104.05,-42.02 100.27,-49.9 96.71,-57.32"/>
<polygon fill="black" stroke="black" points="93.54,-55.83 92.37,-66.36 99.85,-58.86 93.54,-55.83"/>
<text text-anchor="middle" x="98.49" y="-50.1" font-family="Times,serif" font-size="14.00">1</text>
</g>
<!-- 1324720615059849047&#45;&gt;9108380693033140644 -->
<g id="edge6" class="edge">
<title>1324720615059849047&#45;&gt;9108380693033140644</title>
<path fill="none" stroke="black" d="M205.26,-96.09C201.21,-94.12 196.9,-92.04 192.63,-89.97"/>
<polygon fill="black" stroke="black" points="193.98,-86.73 183.45,-85.53 190.93,-93.03 193.98,-86.73"/>
<text text-anchor="middle" x="195.45" y="-96.83" font-family="Times,serif" font-size="14.00">1</text>
</g>
</g>
</svg>
