<?xml version="1.0" encoding="UTF-8" standalone="no"?>
<!DOCTYPE svg PUBLIC "-//W3C//DTD SVG 1.1//EN"
 "http://www.w3.org/Graphics/SVG/1.1/DTD/svg11.dtd">
<!-- Generated by graphviz version 2.50.0 (0)
 -->
<!-- Pages: 1 -->
<svg width="248pt" height="230pt"
 viewBox="0.00 0.00 247.95 229.72" xmlns="http://www.w3.org/2000/svg" xmlns:xlink="http://www.w3.org/1999/xlink">
<g id="graph0" class="graph" transform="scale(1 1) rotate(0) translate(4 225.72)">
<polygon fill="white" stroke="transparent" points="-4,4 -4,-225.72 243.95,-225.72 243.95,4 -4,4"/>
<!-- 10475910883591376841 -->
<g id="node1" class="node">
<title>10475910883591376841</title>
<ellipse fill="none" stroke="black" cx="69.08" cy="-89.99" rx="27" ry="18"/>
<text text-anchor="middle" x="69.08" y="-86.29" font-family="Times,serif" font-size="14.00">3</text>
</g>
<!-- 18346284928877751465 -->
<g id="node3" class="node">
<title>18346284928877751465</title>
<ellipse fill="none" stroke="black" cx="81.05" cy="-18" rx="27" ry="18"/>
<text text-anchor="middle" x="81.05" y="-14.3" font-family="Times,serif" font-size="14.00">22</text>
</g>
<!-- 10475910883591376841&#45;&gt;18346284928877751465 -->
<g id="edge5" class="edge">
<title>10475910883591376841&#45;&gt;18346284928877751465</title>
<path fill="none" stroke="black" stroke-width="0.6" d="M72.1,-71.82C73.4,-64.01 74.95,-54.69 76.39,-46.02"/>
<polygon fill="black" stroke="black" stroke-width="0.6" points="79.88,-46.35 78.07,-35.91 72.98,-45.2 79.88,-46.35"/>
<text text-anchor="middle" x="65.25" y="-47.72" font-family="Times,serif" font-size="14.00">0.6</text>
</g>
<!-- 9543954270121841530 -->
<g id="node8" class="node">
<title>9543954270121841530</title>
<ellipse fill="none" stroke="black" cx="140.96" cy="-59.75" rx="27" ry="18"/>
<text text-anchor="middle" x="140.96" y="-56.05" font-family="Times,serif" font-size="14.00">2</text>
</g>
<!-- 10475910883591376841&#45;&gt;9543954270121841530 -->
<g id="edge4" class="edge">
<title>10475910883591376841&#45;&gt;9543954270121841530</title>
<path fill="none" stroke="black" stroke-width="0.4" d="M92.22,-80.26C97.35,-78.1 102.88,-75.77 108.31,-73.49"/>
<polygon fill="black" stroke="black" stroke-width="0.4" points="110,-76.57 117.86,-69.47 107.29,-70.12 110,-76.57"/>
<text text-anchor="middle" x="109.26" y="-80.67" font-family="Times,serif" font-size="14.00">0.4</text>
</g>
<!-- 1324720615059849047 -->
<g id="node2" class="node">
<title>1324720615059849047</title>
<ellipse fill="none" stroke="black" cx="158.97" cy="-203.72" rx="27" ry="18"/>
<text text-anchor="middle" x="158.97" y="-200.02" font-family="Times,serif" font-size="14.00">44</text>
</g>
<!-- 15253010036835121515 -->
<g id="node4" class="node">
<title>15253010036835121515</title>
<ellipse fill="none" stroke="black" cx="98.96" cy="-162.02" rx="27" ry="18"/>
<text text-anchor="middle" x="98.96" y="-158.32" font-family="Times,serif" font-size="14.00">4</text>
</g>
<!-- 1324720615059849047&#45;&gt;15253010036835121515 -->
<g id="edge8" class="edge">
<title>1324720615059849047&#45;&gt;15253010036835121515</title>
<path fill="none" stroke="black" d="M139.98,-190.53C135.71,-187.56 131.1,-184.35 126.56,-181.2"/>
<polygon fill="black" stroke="black" points="128.24,-178.1 118.03,-175.27 124.25,-183.85 128.24,-178.1"/>
<text text-anchor="middle" x="129.77" y="-174.66" font-family="Times,serif" font-size="14.00">1</text>
</g>
<!-- 18346284928877751465&#45;&gt;9543954270121841530 -->
<g id="edge10" class="edge">
<title>18346284928877751465&#45;&gt;9543954270121841530</title>
<path fill="none" stroke="black" d="M100.01,-31.21C104.27,-34.18 108.87,-37.39 113.41,-40.55"/>
<polygon fill="black" stroke="black" points="111.72,-43.64 121.92,-46.48 115.72,-37.9 111.72,-43.64"/>
<text text-anchor="middle" x="110.21" y="-39.68" font-family="Times,serif" font-size="14.00">1</text>
</g>
<!-- 15253010036835121515&#45;&gt;10475910883591376841 -->
<g id="edge6" class="edge">
<title>15253010036835121515&#45;&gt;10475910883591376841</title>
<path fill="none" stroke="black" stroke-width="0.4" d="M91.73,-144.58C88.27,-136.24 84.05,-126.06 80.19,-116.77"/>
<polygon fill="black" stroke="black" stroke-width="0.4" points="83.42,-115.41 76.35,-107.52 76.95,-118.09 83.42,-115.41"/>
<text text-anchor="middle" x="76.96" y="-119.48" font-family="Times,serif" font-size="14.00">0.4</text>
</g>
<!-- 17128994300635734121 -->
<g id="node6" class="node">
<title>17128994300635734121</title>
<ellipse fill="none" stroke="black" cx="27" cy="-149.61" rx="27" ry="18"/>
<text text-anchor="middle" x="27" y="-145.91" font-family="Times,serif" font-size="14.00">33</text>
</g>
<!-- 15253010036835121515&#45;&gt;17128994300635734121 -->
<g id="edge7" class="edge">
<title>15253010036835121515&#45;&gt;17128994300635734121</title>
<path fill="none" stroke="black" stroke-width="0.6" d="M72.58,-157.47C69.55,-156.95 66.42,-156.41 63.28,-155.87"/>
<polygon fill="black" stroke="black" stroke-width="0.6" points="63.83,-152.41 53.39,-154.16 62.64,-159.31 63.83,-152.41"/>
<text text-anchor="middle" x="63.43" y="-145.47" font-family="Times,serif" font-size="14.00">0.6</text>
</g>
<!-- 12353200903459307177 -->
<g id="node5" class="node">
<title>12353200903459307177</title>
<ellipse fill="none" stroke="black" cx="212.95" cy="-72.24" rx="27" ry="18"/>
<text text-anchor="middle" x="212.95" y="-68.54" font-family="Times,serif" font-size="14.00">11</text>
</g>
<!-- 9108380693033140644 -->
<g id="node7" class="node">
<title>9108380693033140644</title>
<ellipse fill="none" stroke="black" cx="170.79" cy="-131.76" rx="27" ry="18"/>
<text text-anchor="middle" x="170.79" y="-128.06" font-family="Times,serif" font-size="14.00">1</text>
</g>
<!-- 12353200903459307177&#45;&gt;9108380693033140644 -->
<g id="edge1" class="edge">
<title>12353200903459307177&#45;&gt;9108380693033140644</title>
<path fill="none" stroke="black" d="M201.21,-88.82C197.28,-94.36 192.81,-100.68 188.53,-106.72"/>
<polygon fill="black" stroke="black" points="185.4,-105.08 182.47,-115.27 191.11,-109.13 185.4,-105.08"/>
<text text-anchor="middle" x="191.37" y="-101.57" font-family="Times,serif" font-size="14.00">1</text>
</g>
<!-- 17128994300635734121&#45;&gt;10475910883591376841 -->
<g id="edge9" class="edge">
<title>17128994300635734121&#45;&gt;10475910883591376841</title>
<path fill="none" stroke="black" d="M38.5,-133.32C42.51,-127.63 47.12,-121.11 51.51,-114.88"/>
<polygon fill="black" stroke="black" points="54.4,-116.86 57.3,-106.68 48.68,-112.83 54.4,-116.86"/>
<text text-anchor="middle" x="41.51" y="-112.9" font-family="Times,serif" font-size="14.00">1</text>
</g>
<!-- 9108380693033140644&#45;&gt;1324720615059849047 -->
<g id="edge11" class="edge">
<title>9108380693033140644&#45;&gt;1324720615059849047</title>
<path fill="none" stroke="black" stroke-width="0.6" d="M167.81,-149.92C166.52,-157.73 164.99,-167.05 163.57,-175.71"/>
<polygon fill="black" stroke="black" stroke-width="0.6" points="160.08,-175.38 161.91,-185.82 166.98,-176.52 160.08,-175.38"/>
<text text-anchor="middle" x="156.69" y="-166.62" font-family="Times,serif" font-size="14.00">0.6</text>
</g>
<!-- 9108380693033140644&#45;&gt;15253010036835121515 -->
<g id="edge12" class="edge">
<title>9108380693033140644&#45;&gt;15253010036835121515</title>
<path fill="none" stroke="black" stroke-width="0.4" d="M147.67,-141.5C142.54,-143.66 137.02,-145.99 131.59,-148.27"/>
<polygon fill="black" stroke="black" stroke-width="0.4" points="129.9,-145.19 122.04,-152.3 132.62,-151.64 129.9,-145.19"/>
<text text-anchor="middle" x="130.63" y="-133.69" font-family="Times,serif" font-size="14.00">0.4</text>
</g>
<!-- 9543954270121841530&#45;&gt;12353200903459307177 -->
<g id="edge3" class="edge">
<title>9543954270121841530&#45;&gt;12353200903459307177</title>
<path fill="none" stroke="black" stroke-width="0.6" d="M167.36,-64.33C170.39,-64.86 173.52,-65.4 176.65,-65.94"/>
<polygon fill="black" stroke="black" stroke-width="0.6" points="176.1,-69.4 186.55,-67.66 177.3,-62.5 176.1,-69.4"/>
<text text-anchor="middle" x="176.5" y="-53.94" font-family="Times,serif" font-size="14.00">0.6</text>
</g>
<!-- 9543954270121841530&#45;&gt;9108380693033140644 -->
<g id="edge2" class="edge">
<title>9543954270121841530&#45;&gt;9108380693033140644</title>
<path fill="none" stroke="black" stroke-width="0.4" d="M148.18,-77.18C151.64,-85.52 155.85,-95.7 159.7,-104.99"/>
<polygon fill="black" stroke="black" stroke-width="0.4" points="156.47,-106.34 163.53,-114.24 162.94,-103.66 156.47,-106.34"/>
<text text-anchor="middle" x="144.94" y="-94.88" font-family="Times,serif" font-size="14.00">0.4</text>
</g>
</g>
</svg>
