<?xml version="1.0" encoding="UTF-8" standalone="no"?>
<!DOCTYPE svg PUBLIC "-//W3C//DTD SVG 1.1//EN"
 "http://www.w3.org/Graphics/SVG/1.1/DTD/svg11.dtd">
<!-- Generated by graphviz version 2.49.2 (0)
 -->
<!-- Pages: 1 -->
<svg width="188pt" height="148pt"
 viewBox="0.00 0.00 188.24 148.20" xmlns="http://www.w3.org/2000/svg" xmlns:xlink="http://www.w3.org/1999/xlink">
<g id="graph0" class="graph" transform="scale(1 1) rotate(0) translate(4 144.2)">
<polygon fill="white" stroke="transparent" points="-4,4 -4,-144.2 184.24,-144.2 184.24,4 -4,4"/>
<!-- 14550334728282291830 -->
<g id="node1" class="node">
<title>14550334728282291830</title>
<ellipse fill="none" stroke="black" cx="27" cy="-18" rx="27" ry="18"/>
<text text-anchor="middle" x="27" y="-14.3" font-family="Times,serif" font-size="14.00">b</text>
</g>
<!-- 14550334728282291830&#45;&gt;14550334728282291830 -->
<g id="edge1" class="edge">
<title>14550334728282291830&#45;&gt;14550334728282291830</title>
<path fill="none" stroke="black" stroke-width="0.1" d="M52.44,-24.69C63.03,-25.15 72,-22.92 72,-18 72,-14.77 68.14,-12.7 62.49,-11.79"/>
<polygon fill="black" stroke="black" stroke-width="0.1" points="62.6,-8.29 52.44,-11.31 62.27,-15.28 62.6,-8.29"/>
<text text-anchor="middle" x="81" y="-14.3" font-family="Times,serif" font-size="14.00">0.1</text>
</g>
<!-- 16827178101014766047 -->
<g id="node3" class="node">
<title>16827178101014766047</title>
<ellipse fill="none" stroke="black" cx="27" cy="-122.2" rx="27" ry="18"/>
<text text-anchor="middle" x="27" y="-118.5" font-family="Times,serif" font-size="14.00">c</text>
</g>
<!-- 14550334728282291830&#45;&gt;16827178101014766047 -->
<g id="edge2" class="edge">
<title>14550334728282291830&#45;&gt;16827178101014766047</title>
<path fill="none" stroke="black" stroke-width="0.9" d="M27,-36.15C27,-52.04 27,-75.39 27,-93.76"/>
<polygon fill="black" stroke="black" stroke-width="0.9" points="23.5,-93.91 27,-103.91 30.5,-93.91 23.5,-93.91"/>
<text text-anchor="middle" x="18" y="-68.76" font-family="Times,serif" font-size="14.00">0.9</text>
</g>
<!-- 13740064308175729651 -->
<g id="node2" class="node">
<title>13740064308175729651</title>
<ellipse fill="none" stroke="black" cx="117.24" cy="-70.1" rx="27" ry="18"/>
<text text-anchor="middle" x="117.24" y="-66.4" font-family="Times,serif" font-size="14.00">a</text>
</g>
<!-- 13740064308175729651&#45;&gt;14550334728282291830 -->
<g id="edge4" class="edge">
<title>13740064308175729651&#45;&gt;14550334728282291830</title>
<path fill="none" stroke="black" stroke-width="0.9" d="M96.76,-58.28C84.85,-51.4 69.63,-42.61 56.44,-35"/>
<polygon fill="black" stroke="black" stroke-width="0.9" points="58.12,-31.92 47.71,-29.96 54.62,-37.99 58.12,-31.92"/>
<text text-anchor="middle" x="67.6" y="-50.44" font-family="Times,serif" font-size="14.00">0.9</text>
</g>
<!-- 13740064308175729651&#45;&gt;13740064308175729651 -->
<g id="edge3" class="edge">
<title>13740064308175729651&#45;&gt;13740064308175729651</title>
<path fill="none" stroke="black" stroke-width="0.1" d="M142.68,-76.79C153.27,-77.25 162.24,-75.02 162.24,-70.1 162.24,-66.87 158.38,-64.8 152.73,-63.89"/>
<polygon fill="black" stroke="black" stroke-width="0.1" points="152.84,-60.39 142.68,-63.41 152.51,-67.38 152.84,-60.39"/>
<text text-anchor="middle" x="171.24" y="-66.4" font-family="Times,serif" font-size="14.00">0.1</text>
</g>
<!-- 16827178101014766047&#45;&gt;13740064308175729651 -->
<g id="edge6" class="edge">
<title>16827178101014766047&#45;&gt;13740064308175729651</title>
<path fill="none" stroke="black" stroke-width="0.9" d="M47.48,-110.38C59.39,-103.5 74.61,-94.71 87.8,-87.1"/>
<polygon fill="black" stroke="black" stroke-width="0.9" points="89.62,-90.09 96.53,-82.06 86.12,-84.03 89.62,-90.09"/>
<text text-anchor="middle" x="58.64" y="-87.54" font-family="Times,serif" font-size="14.00">0.9</text>
</g>
<!-- 16827178101014766047&#45;&gt;16827178101014766047 -->
<g id="edge5" class="edge">
<title>16827178101014766047&#45;&gt;16827178101014766047</title>
<path fill="none" stroke="black" stroke-width="0.1" d="M52.44,-128.89C63.03,-129.35 72,-127.12 72,-122.2 72,-118.97 68.14,-116.9 62.49,-115.99"/>
<polygon fill="black" stroke="black" stroke-width="0.1" points="62.6,-112.49 52.44,-115.51 62.27,-119.48 62.6,-112.49"/>
<text text-anchor="middle" x="81" y="-118.5" font-family="Times,serif" font-size="14.00">0.1</text>
</g>
</g>
</svg>
