<?xml version="1.0" encoding="UTF-8" standalone="no"?>
<!DOCTYPE svg PUBLIC "-//W3C//DTD SVG 1.1//EN"
 "http://www.w3.org/Graphics/SVG/1.1/DTD/svg11.dtd">
<!-- Generated by graphviz version 2.49.2 (0)
 -->
<!-- Pages: 1 -->
<svg width="244pt" height="214pt"
 viewBox="0.00 0.00 244.35 213.62" xmlns="http://www.w3.org/2000/svg" xmlns:xlink="http://www.w3.org/1999/xlink">
<g id="graph0" class="graph" transform="scale(1 1) rotate(0) translate(4 209.62)">
<polygon fill="white" stroke="transparent" points="-4,4 -4,-209.62 240.35,-209.62 240.35,4 -4,4"/>
<!-- 15253010036835121515 -->
<g id="node1" class="node">
<title>15253010036835121515</title>
<ellipse fill="none" stroke="black" cx="27" cy="-18" rx="27" ry="18"/>
<text text-anchor="middle" x="27" y="-14.3" font-family="Times,serif" font-size="14.00">4</text>
</g>
<!-- 15253010036835121515&#45;&gt;15253010036835121515 -->
<g id="edge9" class="edge">
<title>15253010036835121515&#45;&gt;15253010036835121515</title>
<path fill="none" stroke="black" stroke-width="0.9" d="M52.44,-24.69C63.03,-25.15 72,-22.92 72,-18 72,-14.77 68.14,-12.7 62.49,-11.79"/>
<polygon fill="black" stroke="black" stroke-width="0.9" points="62.6,-8.29 52.44,-11.31 62.27,-15.28 62.6,-8.29"/>
<text text-anchor="middle" x="81" y="-14.3" font-family="Times,serif" font-size="14.00">0.9</text>
</g>
<!-- 10475910883591376841 -->
<g id="node3" class="node">
<title>10475910883591376841</title>
<ellipse fill="none" stroke="black" cx="82.36" cy="-64.49" rx="27" ry="18"/>
<text text-anchor="middle" x="82.36" y="-60.79" font-family="Times,serif" font-size="14.00">3</text>
</g>
<!-- 15253010036835121515&#45;&gt;10475910883591376841 -->
<g id="edge10" class="edge">
<title>15253010036835121515&#45;&gt;10475910883591376841</title>
<path fill="none" stroke="black" stroke-width="0.1" d="M37.67,-34.83C41.86,-39.06 46.86,-43.57 51.99,-47.79"/>
<polygon fill="black" stroke="black" stroke-width="0.1" points="50.01,-50.68 60.04,-54.09 54.32,-45.17 50.01,-50.68"/>
<text text-anchor="middle" x="35.83" y="-45.11" font-family="Times,serif" font-size="14.00">0.1</text>
</g>
<!-- 9543954270121841530 -->
<g id="node2" class="node">
<title>9543954270121841530</title>
<ellipse fill="none" stroke="black" cx="126.35" cy="-121.95" rx="27" ry="18"/>
<text text-anchor="middle" x="126.35" y="-118.25" font-family="Times,serif" font-size="14.00">2</text>
</g>
<!-- 9543954270121841530&#45;&gt;9543954270121841530 -->
<g id="edge1" class="edge">
<title>9543954270121841530&#45;&gt;9543954270121841530</title>
<path fill="none" stroke="black" stroke-width="0.8" d="M151.79,-128.64C162.37,-129.1 171.35,-126.87 171.35,-121.95 171.35,-118.72 167.48,-116.65 161.83,-115.74"/>
<polygon fill="black" stroke="black" stroke-width="0.8" points="161.94,-112.24 151.79,-115.26 161.61,-119.23 161.94,-112.24"/>
<text text-anchor="middle" x="203.85" y="-118.25" font-family="Times,serif" font-size="14.00">0.79999995</text>
</g>
<!-- 9543954270121841530&#45;&gt;10475910883591376841 -->
<g id="edge2" class="edge">
<title>9543954270121841530&#45;&gt;10475910883591376841</title>
<path fill="none" stroke="black" stroke-width="0.1" d="M120.17,-104.15C116.58,-98.35 111.95,-91.87 107.15,-85.84"/>
<polygon fill="black" stroke="black" stroke-width="0.1" points="109.69,-83.42 100.58,-78.01 104.33,-87.92 109.69,-83.42"/>
<text text-anchor="middle" x="122.66" y="-83.8" font-family="Times,serif" font-size="14.00">0.1</text>
</g>
<!-- 9108380693033140644 -->
<g id="node4" class="node">
<title>9108380693033140644</title>
<ellipse fill="none" stroke="black" cx="156.65" cy="-187.62" rx="27" ry="18"/>
<text text-anchor="middle" x="156.65" y="-183.92" font-family="Times,serif" font-size="14.00">1</text>
</g>
<!-- 9543954270121841530&#45;&gt;9108380693033140644 -->
<g id="edge3" class="edge">
<title>9543954270121841530&#45;&gt;9108380693033140644</title>
<path fill="none" stroke="black" stroke-width="0.1" d="M128.22,-139.96C130.64,-147.08 134.16,-155.37 137.96,-163.03"/>
<polygon fill="black" stroke="black" stroke-width="0.1" points="134.9,-164.73 142.67,-171.93 141.09,-161.46 134.9,-164.73"/>
<text text-anchor="middle" x="124.09" y="-155.29" font-family="Times,serif" font-size="14.00">0.1</text>
</g>
<!-- 10475910883591376841&#45;&gt;15253010036835121515 -->
<g id="edge7" class="edge">
<title>10475910883591376841&#45;&gt;15253010036835121515</title>
<path fill="none" stroke="black" stroke-width="0.1" d="M71.69,-47.67C67.5,-43.44 62.49,-38.92 57.37,-34.71"/>
<polygon fill="black" stroke="black" stroke-width="0.1" points="59.35,-31.81 49.32,-28.41 55.04,-37.33 59.35,-31.81"/>
<text text-anchor="middle" x="73.53" y="-29.99" font-family="Times,serif" font-size="14.00">0.1</text>
</g>
<!-- 10475910883591376841&#45;&gt;9543954270121841530 -->
<g id="edge8" class="edge">
<title>10475910883591376841&#45;&gt;9543954270121841530</title>
<path fill="none" stroke="black" stroke-width="0.1" d="M88.54,-82.29C92.12,-88.1 96.75,-94.58 101.55,-100.6"/>
<polygon fill="black" stroke="black" stroke-width="0.1" points="99.01,-103.02 108.12,-108.43 104.37,-98.52 99.01,-103.02"/>
<text text-anchor="middle" x="86.04" y="-95.25" font-family="Times,serif" font-size="14.00">0.1</text>
</g>
<!-- 10475910883591376841&#45;&gt;10475910883591376841 -->
<g id="edge6" class="edge">
<title>10475910883591376841&#45;&gt;10475910883591376841</title>
<path fill="none" stroke="black" stroke-width="0.8" d="M107.8,-71.19C118.39,-71.65 127.36,-69.42 127.36,-64.49 127.36,-61.26 123.5,-59.19 117.85,-58.28"/>
<polygon fill="black" stroke="black" stroke-width="0.8" points="117.96,-54.78 107.8,-57.8 117.63,-61.78 117.96,-54.78"/>
<text text-anchor="middle" x="159.86" y="-60.79" font-family="Times,serif" font-size="14.00">0.79999995</text>
</g>
<!-- 9108380693033140644&#45;&gt;9543954270121841530 -->
<g id="edge5" class="edge">
<title>9108380693033140644&#45;&gt;9543954270121841530</title>
<path fill="none" stroke="black" stroke-width="0.1" d="M154.77,-169.61C152.35,-162.48 148.83,-154.19 145.03,-146.53"/>
<polygon fill="black" stroke="black" stroke-width="0.1" points="148.09,-144.83 140.32,-137.63 141.9,-148.11 148.09,-144.83"/>
<text text-anchor="middle" x="158.9" y="-146.87" font-family="Times,serif" font-size="14.00">0.1</text>
</g>
<!-- 9108380693033140644&#45;&gt;9108380693033140644 -->
<g id="edge4" class="edge">
<title>9108380693033140644&#45;&gt;9108380693033140644</title>
<path fill="none" stroke="black" stroke-width="0.9" d="M182.09,-194.31C192.67,-194.77 201.65,-192.54 201.65,-187.62 201.65,-184.39 197.78,-182.32 192.13,-181.4"/>
<polygon fill="black" stroke="black" stroke-width="0.9" points="192.24,-177.9 182.09,-180.93 191.91,-184.9 192.24,-177.9"/>
<text text-anchor="middle" x="210.65" y="-183.92" font-family="Times,serif" font-size="14.00">0.9</text>
</g>
</g>
</svg>
