<?xml version="1.0" encoding="UTF-8" standalone="no"?>
<!DOCTYPE svg PUBLIC "-//W3C//DTD SVG 1.1//EN"
 "http://www.w3.org/Graphics/SVG/1.1/DTD/svg11.dtd">
<!-- Generated by graphviz version 2.49.2 (0)
 -->
<!-- Pages: 1 -->
<svg width="215pt" height="197pt"
 viewBox="0.00 0.00 215.14 197.12" xmlns="http://www.w3.org/2000/svg" xmlns:xlink="http://www.w3.org/1999/xlink">
<g id="graph0" class="graph" transform="scale(1 1) rotate(0) translate(4 193.12)">
<polygon fill="white" stroke="transparent" points="-4,4 -4,-193.12 211.14,-193.12 211.14,4 -4,4"/>
<!-- 16827178101014766047 -->
<g id="node1" class="node">
<title>16827178101014766047</title>
<ellipse fill="none" stroke="black" cx="27" cy="-115.6" rx="27" ry="18"/>
<text text-anchor="middle" x="27" y="-111.9" font-family="Times,serif" font-size="14.00">c</text>
</g>
<!-- 13740064308175729651 -->
<g id="node4" class="node">
<title>13740064308175729651</title>
<ellipse fill="none" stroke="black" cx="103.61" cy="-94.68" rx="27" ry="18"/>
<text text-anchor="middle" x="103.61" y="-90.98" font-family="Times,serif" font-size="14.00">a</text>
</g>
<!-- 16827178101014766047&#45;&gt;13740064308175729651 -->
<g id="edge7" class="edge">
<title>16827178101014766047&#45;&gt;13740064308175729651</title>
<path fill="none" stroke="black" d="M54.2,-114.81C60.46,-113.46 67.15,-111.72 73.52,-109.8"/>
<polygon fill="black" stroke="black" points="74.74,-113.08 83.17,-106.66 72.58,-106.43 74.74,-113.08"/>
<text text-anchor="middle" x="60.36" y="-116.1" font-family="Times,serif" font-size="14.00">1</text>
</g>
<!-- 6734202283541158257 -->
<g id="node2" class="node">
<title>6734202283541158257</title>
<ellipse fill="none" stroke="black" cx="180.14" cy="-73.17" rx="27" ry="18"/>
<text text-anchor="middle" x="180.14" y="-69.47" font-family="Times,serif" font-size="14.00">e</text>
</g>
<!-- 6734202283541158257&#45;&gt;13740064308175729651 -->
<g id="edge1" class="edge">
<title>6734202283541158257&#45;&gt;13740064308175729651</title>
<path fill="none" stroke="black" d="M152.92,-74.17C146.67,-75.57 139.98,-77.36 133.61,-79.32"/>
<polygon fill="black" stroke="black" points="132.36,-76.05 123.98,-82.54 134.57,-82.69 132.36,-76.05"/>
<text text-anchor="middle" x="139.77" y="-65.55" font-family="Times,serif" font-size="14.00">1</text>
</g>
<!-- 14550334728282291830 -->
<g id="node3" class="node">
<title>14550334728282291830</title>
<ellipse fill="none" stroke="black" cx="82.78" cy="-18" rx="27" ry="18"/>
<text text-anchor="middle" x="82.78" y="-14.3" font-family="Times,serif" font-size="14.00">b</text>
</g>
<!-- 14550334728282291830&#45;&gt;13740064308175729651 -->
<g id="edge6" class="edge">
<title>14550334728282291830&#45;&gt;13740064308175729651</title>
<path fill="none" stroke="black" d="M81.82,-36.13C83.35,-45.75 86.31,-57.73 89.69,-68.35"/>
<polygon fill="black" stroke="black" points="86.45,-69.69 93.02,-78 93.06,-67.4 86.45,-69.69"/>
<text text-anchor="middle" x="82.25" y="-56.04" font-family="Times,serif" font-size="14.00">1</text>
</g>
<!-- 13740064308175729651&#45;&gt;16827178101014766047 -->
<g id="edge3" class="edge">
<title>13740064308175729651&#45;&gt;16827178101014766047</title>
<path fill="none" stroke="black" stroke-width="0.25" d="M76.41,-95.47C70.15,-96.82 63.46,-98.55 57.08,-100.47"/>
<polygon fill="black" stroke="black" stroke-width="0.25" points="55.86,-97.19 47.43,-103.61 58.03,-103.85 55.86,-97.19"/>
<text text-anchor="middle" x="54.25" y="-86.77" font-family="Times,serif" font-size="14.00">0.25</text>
</g>
<!-- 13740064308175729651&#45;&gt;6734202283541158257 -->
<g id="edge5" class="edge">
<title>13740064308175729651&#45;&gt;6734202283541158257</title>
<path fill="none" stroke="black" stroke-width="0.25" d="M130.82,-93.68C137.08,-92.28 143.77,-90.49 150.14,-88.53"/>
<polygon fill="black" stroke="black" stroke-width="0.25" points="151.39,-91.8 159.77,-85.31 149.18,-85.16 151.39,-91.8"/>
<text text-anchor="middle" x="152.98" y="-94.9" font-family="Times,serif" font-size="14.00">0.25</text>
</g>
<!-- 13740064308175729651&#45;&gt;14550334728282291830 -->
<g id="edge2" class="edge">
<title>13740064308175729651&#45;&gt;14550334728282291830</title>
<path fill="none" stroke="black" stroke-width="0.25" d="M104.57,-76.55C103.03,-66.93 100.07,-54.95 96.69,-44.33"/>
<polygon fill="black" stroke="black" stroke-width="0.25" points="99.94,-42.99 93.36,-34.68 93.32,-45.28 99.94,-42.99"/>
<text text-anchor="middle" x="113.13" y="-64.24" font-family="Times,serif" font-size="14.00">0.25</text>
</g>
<!-- 189185847607106207 -->
<g id="node5" class="node">
<title>189185847607106207</title>
<ellipse fill="none" stroke="black" cx="125.27" cy="-171.12" rx="27" ry="18"/>
<text text-anchor="middle" x="125.27" y="-167.42" font-family="Times,serif" font-size="14.00">d</text>
</g>
<!-- 13740064308175729651&#45;&gt;189185847607106207 -->
<g id="edge4" class="edge">
<title>13740064308175729651&#45;&gt;189185847607106207</title>
<path fill="none" stroke="black" stroke-width="0.25" d="M102.84,-112.81C104.48,-122.41 107.58,-134.36 111.07,-144.95"/>
<polygon fill="black" stroke="black" stroke-width="0.25" points="107.84,-146.31 114.5,-154.55 114.43,-143.96 107.84,-146.31"/>
<text text-anchor="middle" x="94.45" y="-132.68" font-family="Times,serif" font-size="14.00">0.25</text>
</g>
<!-- 189185847607106207&#45;&gt;13740064308175729651 -->
<g id="edge8" class="edge">
<title>189185847607106207&#45;&gt;13740064308175729651</title>
<path fill="none" stroke="black" d="M126.03,-152.98C124.39,-143.38 121.3,-131.43 117.81,-120.85"/>
<polygon fill="black" stroke="black" points="121.04,-119.48 114.37,-111.24 114.44,-121.84 121.04,-119.48"/>
<text text-anchor="middle" x="118.42" y="-140.71" font-family="Times,serif" font-size="14.00">1</text>
</g>
</g>
</svg>
