<?xml version="1.0" encoding="UTF-8" standalone="no"?>
<!DOCTYPE svg PUBLIC "-//W3C//DTD SVG 1.1//EN"
 "http://www.w3.org/Graphics/SVG/1.1/DTD/svg11.dtd">
<!-- Generated by graphviz version 2.49.2 (0)
 -->
<!-- Pages: 1 -->
<svg width="205pt" height="204pt"
 viewBox="0.00 0.00 205.22 203.86" xmlns="http://www.w3.org/2000/svg" xmlns:xlink="http://www.w3.org/1999/xlink">
<g id="graph0" class="graph" transform="scale(1 1) rotate(0) translate(4 199.86)">
<polygon fill="white" stroke="transparent" points="-4,4 -4,-199.86 201.22,-199.86 201.22,4 -4,4"/>
<!-- 5761619195278038434 -->
<g id="node1" class="node">
<title>5761619195278038434</title>
<ellipse fill="none" stroke="black" cx="27" cy="-71.94" rx="27" ry="18"/>
<text text-anchor="middle" x="27" y="-68.24" font-family="Times,serif" font-size="14.00">6</text>
</g>
<!-- 12548409172171111871 -->
<g id="node6" class="node">
<title>12548409172171111871</title>
<ellipse fill="none" stroke="black" cx="30.66" cy="-133.51" rx="27" ry="18"/>
<text text-anchor="middle" x="30.66" y="-129.81" font-family="Times,serif" font-size="14.00">7</text>
</g>
<!-- 5761619195278038434&#45;&gt;12548409172171111871 -->
<g id="edge7" class="edge">
<title>5761619195278038434&#45;&gt;12548409172171111871</title>
<path fill="none" stroke="black" d="M28.08,-90.08C28.36,-94.8 28.67,-100 28.97,-105.11"/>
<polygon fill="black" stroke="black" points="25.49,-105.51 29.58,-115.29 32.48,-105.1 25.49,-105.51"/>
<text text-anchor="middle" x="25.02" y="-101.39" font-family="Times,serif" font-size="14.00">1</text>
</g>
<!-- 9543954270121841530 -->
<g id="node2" class="node">
<title>9543954270121841530</title>
<ellipse fill="none" stroke="black" cx="164.82" cy="-46.3" rx="27" ry="18"/>
<text text-anchor="middle" x="164.82" y="-42.6" font-family="Times,serif" font-size="14.00">2</text>
</g>
<!-- 10475910883591376841 -->
<g id="node3" class="node">
<title>10475910883591376841</title>
<ellipse fill="none" stroke="black" cx="110.01" cy="-18" rx="27" ry="18"/>
<text text-anchor="middle" x="110.01" y="-14.3" font-family="Times,serif" font-size="14.00">3</text>
</g>
<!-- 9543954270121841530&#45;&gt;10475910883591376841 -->
<g id="edge9" class="edge">
<title>9543954270121841530&#45;&gt;10475910883591376841</title>
<path fill="none" stroke="black" d="M143.48,-35.28C142.48,-34.77 141.48,-34.25 140.47,-33.73"/>
<polygon fill="black" stroke="black" points="141.88,-30.52 131.39,-29.04 138.67,-36.74 141.88,-30.52"/>
<text text-anchor="middle" x="145.47" y="-23.3" font-family="Times,serif" font-size="14.00">1</text>
</g>
<!-- 9108380693033140644 -->
<g id="node7" class="node">
<title>9108380693033140644</title>
<ellipse fill="none" stroke="black" cx="103.28" cy="-98.43" rx="27" ry="18"/>
<text text-anchor="middle" x="103.28" y="-94.73" font-family="Times,serif" font-size="14.00">1</text>
</g>
<!-- 10475910883591376841&#45;&gt;9108380693033140644 -->
<g id="edge1" class="edge">
<title>10475910883591376841&#45;&gt;9108380693033140644</title>
<path fill="none" stroke="black" d="M108.48,-36.25C107.65,-46.22 106.6,-58.8 105.66,-70.03"/>
<polygon fill="black" stroke="black" points="102.15,-69.99 104.8,-80.25 109.12,-70.58 102.15,-69.99"/>
<text text-anchor="middle" x="103.57" y="-56.94" font-family="Times,serif" font-size="14.00">1</text>
</g>
<!-- 9514348173325862181 -->
<g id="node4" class="node">
<title>9514348173325862181</title>
<ellipse fill="none" stroke="black" cx="118.06" cy="-177.86" rx="27" ry="18"/>
<text text-anchor="middle" x="118.06" y="-174.16" font-family="Times,serif" font-size="14.00">5</text>
</g>
<!-- 9514348173325862181&#45;&gt;9108380693033140644 -->
<g id="edge3" class="edge">
<title>9514348173325862181&#45;&gt;9108380693033140644</title>
<path fill="none" stroke="black" d="M114.71,-159.84C112.88,-149.99 110.56,-137.57 108.5,-126.48"/>
<polygon fill="black" stroke="black" points="111.89,-125.57 106.62,-116.38 105.01,-126.85 111.89,-125.57"/>
<text text-anchor="middle" x="108.11" y="-146.96" font-family="Times,serif" font-size="14.00">1</text>
</g>
<!-- 15253010036835121515 -->
<g id="node5" class="node">
<title>15253010036835121515</title>
<ellipse fill="none" stroke="black" cx="169.76" cy="-144.38" rx="27" ry="18"/>
<text text-anchor="middle" x="169.76" y="-140.68" font-family="Times,serif" font-size="14.00">4</text>
</g>
<!-- 15253010036835121515&#45;&gt;9514348173325862181 -->
<g id="edge8" class="edge">
<title>15253010036835121515&#45;&gt;9514348173325862181</title>
<path fill="none" stroke="black" d="M150.21,-157.04C148.93,-157.87 147.62,-158.72 146.3,-159.57"/>
<polygon fill="black" stroke="black" points="144.12,-156.81 137.63,-165.19 147.93,-162.69 144.12,-156.81"/>
<text text-anchor="middle" x="151.76" y="-162.11" font-family="Times,serif" font-size="14.00">1</text>
</g>
<!-- 12548409172171111871&#45;&gt;9108380693033140644 -->
<g id="edge2" class="edge">
<title>12548409172171111871&#45;&gt;9108380693033140644</title>
<path fill="none" stroke="black" d="M52.84,-122.79C58.9,-119.87 65.57,-116.64 72.03,-113.53"/>
<polygon fill="black" stroke="black" points="73.75,-116.58 81.23,-109.08 70.71,-110.28 73.75,-116.58"/>
<text text-anchor="middle" x="65.93" y="-121.96" font-family="Times,serif" font-size="14.00">1</text>
</g>
<!-- 9108380693033140644&#45;&gt;5761619195278038434 -->
<g id="edge6" class="edge">
<title>9108380693033140644&#45;&gt;5761619195278038434</title>
<path fill="none" stroke="black" stroke-width="0.33" d="M79.14,-90.05C73.24,-88 66.82,-85.77 60.57,-83.6"/>
<polygon fill="black" stroke="black" stroke-width="0.33" points="61.57,-80.24 50.98,-80.27 59.28,-86.86 61.57,-80.24"/>
<text text-anchor="middle" x="37.36" y="-90.62" font-family="Times,serif" font-size="14.00">0.33333334</text>
</g>
<!-- 9108380693033140644&#45;&gt;9543954270121841530 -->
<g id="edge4" class="edge">
<title>9108380693033140644&#45;&gt;9543954270121841530</title>
<path fill="none" stroke="black" stroke-width="0.33" d="M120.1,-84.18C126.34,-78.9 133.55,-72.79 140.34,-67.04"/>
<polygon fill="black" stroke="black" stroke-width="0.33" points="142.66,-69.66 148.03,-60.53 138.13,-64.32 142.66,-69.66"/>
<text text-anchor="middle" x="162.72" y="-79.41" font-family="Times,serif" font-size="14.00">0.33333334</text>
</g>
<!-- 9108380693033140644&#45;&gt;15253010036835121515 -->
<g id="edge5" class="edge">
<title>9108380693033140644&#45;&gt;15253010036835121515</title>
<path fill="none" stroke="black" stroke-width="0.33" d="M122.15,-111.47C128.41,-115.8 135.52,-120.71 142.29,-125.39"/>
<polygon fill="black" stroke="black" stroke-width="0.33" points="140.39,-128.34 150.61,-131.14 144.37,-122.58 140.39,-128.34"/>
<text text-anchor="middle" x="164.72" y="-107.23" font-family="Times,serif" font-size="14.00">0.33333334</text>
</g>
</g>
</svg>
