<?xml version="1.0" encoding="UTF-8" standalone="no"?>
<!DOCTYPE svg PUBLIC "-//W3C//DTD SVG 1.1//EN"
 "http://www.w3.org/Graphics/SVG/1.1/DTD/svg11.dtd">
<!-- Generated by graphviz version 2.49.3 (0)
 -->
<!-- Pages: 1 -->
<svg width="120pt" height="305pt"
 viewBox="0.00 0.00 120.00 305.00" xmlns="http://www.w3.org/2000/svg" xmlns:xlink="http://www.w3.org/1999/xlink">
<g id="graph0" class="graph" transform="scale(1 1) rotate(0) translate(4 301)">
<polygon fill="white" stroke="transparent" points="-4,4 -4,-301 116,-301 116,4 -4,4"/>
<!-- 16827178101014766047 -->
<g id="node1" class="node">
<title>16827178101014766047</title>
<ellipse fill="none" stroke="black" cx="27" cy="-279" rx="27" ry="18"/>
<text text-anchor="middle" x="27" y="-275.3" font-family="Times,serif" font-size="14.00">c</text>
</g>
<!-- 189185847607106207 -->
<g id="node4" class="node">
<title>189185847607106207</title>
<ellipse fill="none" stroke="black" cx="27" cy="-192" rx="27" ry="18"/>
<text text-anchor="middle" x="27" y="-188.3" font-family="Times,serif" font-size="14.00">d</text>
</g>
<!-- 16827178101014766047&#45;&gt;189185847607106207 -->
<g id="edge1" class="edge">
<title>16827178101014766047&#45;&gt;189185847607106207</title>
<path fill="none" stroke="black" d="M27,-260.8C27,-249.16 27,-233.55 27,-220.24"/>
<polygon fill="black" stroke="black" points="30.5,-220.18 27,-210.18 23.5,-220.18 30.5,-220.18"/>
<text text-anchor="middle" x="30.5" y="-231.8" font-family="Times,serif" font-size="14.00">1</text>
</g>
<!-- 14550334728282291830 -->
<g id="node2" class="node">
<title>14550334728282291830</title>
<ellipse fill="none" stroke="black" cx="31" cy="-18" rx="27" ry="18"/>
<text text-anchor="middle" x="31" y="-14.3" font-family="Times,serif" font-size="14.00">b</text>
</g>
<!-- 14550334728282291830&#45;&gt;16827178101014766047 -->
<g id="edge3" class="edge">
<title>14550334728282291830&#45;&gt;16827178101014766047</title>
<path fill="none" stroke="black" stroke-width="0.2" d="M49.78,-31.24C66.26,-43.21 89.1,-63.09 99,-87 105.12,-101.78 102.12,-107.31 99,-123 89.24,-172.11 61.07,-223.82 42.99,-253.37"/>
<polygon fill="black" stroke="black" stroke-width="0.2" points="39.84,-251.81 37.52,-262.15 45.78,-255.52 39.84,-251.81"/>
<text text-anchor="middle" x="103" y="-144.8" font-family="Times,serif" font-size="14.00">0.2</text>
</g>
<!-- 13740064308175729651 -->
<g id="node3" class="node">
<title>13740064308175729651</title>
<ellipse fill="none" stroke="black" cx="27" cy="-105" rx="27" ry="18"/>
<text text-anchor="middle" x="27" y="-101.3" font-family="Times,serif" font-size="14.00">a</text>
</g>
<!-- 14550334728282291830&#45;&gt;13740064308175729651 -->
<g id="edge2" class="edge">
<title>14550334728282291830&#45;&gt;13740064308175729651</title>
<path fill="none" stroke="black" stroke-width="0.8" d="M32.74,-36.15C33.46,-45.81 33.93,-58.09 33,-69 32.78,-71.58 32.47,-74.26 32.11,-76.93"/>
<polygon fill="black" stroke="black" stroke-width="0.8" points="28.62,-76.56 30.51,-86.98 35.54,-77.66 28.62,-76.56"/>
<text text-anchor="middle" x="42" y="-57.8" font-family="Times,serif" font-size="14.00">0.8</text>
</g>
<!-- 13740064308175729651&#45;&gt;14550334728282291830 -->
<g id="edge5" class="edge">
<title>13740064308175729651&#45;&gt;14550334728282291830</title>
<path fill="none" stroke="black" stroke-width="0.9" d="M16.98,-87.91C12.13,-78.17 7.96,-65.45 11,-54 11.93,-50.51 13.29,-47.01 14.88,-43.64"/>
<polygon fill="black" stroke="black" stroke-width="0.9" points="18.08,-45.07 19.77,-34.62 11.93,-41.74 18.08,-45.07"/>
<text text-anchor="middle" x="20" y="-57.8" font-family="Times,serif" font-size="14.00">0.9</text>
</g>
<!-- 13740064308175729651&#45;&gt;13740064308175729651 -->
<g id="edge4" class="edge">
<title>13740064308175729651&#45;&gt;13740064308175729651</title>
<path fill="none" stroke="black" stroke-width="0.1" d="M51.53,-112.75C62.51,-113.49 72,-110.91 72,-105 72,-101.03 67.72,-98.56 61.57,-97.59"/>
<polygon fill="black" stroke="black" stroke-width="0.1" points="61.65,-94.09 51.53,-97.25 61.41,-101.09 61.65,-94.09"/>
<text text-anchor="middle" x="81" y="-101.3" font-family="Times,serif" font-size="14.00">0.1</text>
</g>
<!-- 189185847607106207&#45;&gt;13740064308175729651 -->
<g id="edge6" class="edge">
<title>189185847607106207&#45;&gt;13740064308175729651</title>
<path fill="none" stroke="black" d="M27,-173.8C27,-162.16 27,-146.55 27,-133.24"/>
<polygon fill="black" stroke="black" points="30.5,-133.18 27,-123.18 23.5,-133.18 30.5,-133.18"/>
<text text-anchor="middle" x="30.5" y="-144.8" font-family="Times,serif" font-size="14.00">1</text>
</g>
</g>
</svg>
