<?xml version="1.0" encoding="UTF-8" standalone="no"?>
<!DOCTYPE svg PUBLIC "-//W3C//DTD SVG 1.1//EN"
 "http://www.w3.org/Graphics/SVG/1.1/DTD/svg11.dtd">
<!-- Generated by graphviz version 2.49.2 (0)
 -->
<!-- Pages: 1 -->
<svg width="346pt" height="329pt"
 viewBox="0.00 0.00 346.13 328.78" xmlns="http://www.w3.org/2000/svg" xmlns:xlink="http://www.w3.org/1999/xlink">
<g id="graph0" class="graph" transform="scale(1 1) rotate(0) translate(4 324.78)">
<polygon fill="white" stroke="transparent" points="-4,4 -4,-324.78 342.13,-324.78 342.13,4 -4,4"/>
<!-- 14550334728282291830 -->
<g id="node1" class="node">
<title>14550334728282291830</title>
<ellipse fill="none" stroke="black" cx="94.64" cy="-123.29" rx="27" ry="18"/>
<text text-anchor="middle" x="94.64" y="-119.59" font-family="Times,serif" font-size="14.00">b</text>
</g>
<!-- 13740064308175729651 -->
<g id="node6" class="node">
<title>13740064308175729651</title>
<ellipse fill="none" stroke="black" cx="168.45" cy="-159.61" rx="27" ry="18"/>
<text text-anchor="middle" x="168.45" y="-155.91" font-family="Times,serif" font-size="14.00">a</text>
</g>
<!-- 14550334728282291830&#45;&gt;13740064308175729651 -->
<g id="edge14" class="edge">
<title>14550334728282291830&#45;&gt;13740064308175729651</title>
<path fill="none" stroke="black" stroke-width="0.5" d="M110.64,-137.79C117.34,-141.83 125.4,-146.08 133.36,-149.81"/>
<polygon fill="black" stroke="black" stroke-width="0.5" points="131.99,-153.03 142.55,-153.9 134.84,-146.64 131.99,-153.03"/>
<text text-anchor="middle" x="113" y="-147.6" font-family="Times,serif" font-size="14.00">0.5</text>
</g>
<!-- 16827178101014766047 -->
<g id="node8" class="node">
<title>16827178101014766047</title>
<ellipse fill="none" stroke="black" cx="27" cy="-87.42" rx="27" ry="18"/>
<text text-anchor="middle" x="27" y="-83.72" font-family="Times,serif" font-size="14.00">c</text>
</g>
<!-- 14550334728282291830&#45;&gt;16827178101014766047 -->
<g id="edge15" class="edge">
<title>14550334728282291830&#45;&gt;16827178101014766047</title>
<path fill="none" stroke="black" stroke-width="0.5" d="M79.35,-108.32C74.03,-104.9 67.83,-101.36 61.59,-98.14"/>
<polygon fill="black" stroke="black" stroke-width="0.5" points="63.05,-94.96 52.53,-93.71 59.98,-101.25 63.05,-94.96"/>
<text text-anchor="middle" x="79.47" y="-92.03" font-family="Times,serif" font-size="14.00">0.5</text>
</g>
<!-- 6734202283541158257 -->
<g id="node2" class="node">
<title>6734202283541158257</title>
<ellipse fill="none" stroke="black" cx="240.36" cy="-18" rx="27" ry="18"/>
<text text-anchor="middle" x="240.36" y="-14.3" font-family="Times,serif" font-size="14.00">e</text>
</g>
<!-- 189185847607106207 -->
<g id="node7" class="node">
<title>189185847607106207</title>
<ellipse fill="none" stroke="black" cx="204.96" cy="-85.93" rx="27" ry="18"/>
<text text-anchor="middle" x="204.96" y="-82.23" font-family="Times,serif" font-size="14.00">d</text>
</g>
<!-- 6734202283541158257&#45;&gt;189185847607106207 -->
<g id="edge6" class="edge">
<title>6734202283541158257&#45;&gt;189185847607106207</title>
<path fill="none" stroke="black" d="M225.5,-33.4C220.8,-40.83 215.89,-49.94 211.92,-58.48"/>
<polygon fill="black" stroke="black" points="208.66,-57.2 207.91,-67.77 215.09,-59.98 208.66,-57.2"/>
<text text-anchor="middle" x="215.21" y="-49.74" font-family="Times,serif" font-size="14.00">1</text>
</g>
<!-- 3204020967684396260 -->
<g id="node3" class="node">
<title>3204020967684396260</title>
<ellipse fill="none" stroke="black" cx="242.1" cy="-196.18" rx="27" ry="18"/>
<text text-anchor="middle" x="242.1" y="-192.48" font-family="Times,serif" font-size="14.00">f</text>
</g>
<!-- 14413528218895301473 -->
<g id="node5" class="node">
<title>14413528218895301473</title>
<ellipse fill="none" stroke="black" cx="311.13" cy="-229.39" rx="27" ry="18"/>
<text text-anchor="middle" x="311.13" y="-225.69" font-family="Times,serif" font-size="14.00">g</text>
</g>
<!-- 3204020967684396260&#45;&gt;14413528218895301473 -->
<g id="edge2" class="edge">
<title>3204020967684396260&#45;&gt;14413528218895301473</title>
<path fill="none" stroke="black" stroke-width="0.5" d="M258.33,-210.74C263.56,-213.81 269.58,-216.94 275.63,-219.79"/>
<polygon fill="black" stroke="black" stroke-width="0.5" points="274.52,-223.12 285.08,-223.98 277.35,-216.73 274.52,-223.12"/>
<text text-anchor="middle" x="257.98" y="-219.07" font-family="Times,serif" font-size="14.00">0.5</text>
</g>
<!-- 3204020967684396260&#45;&gt;13740064308175729651 -->
<g id="edge1" class="edge">
<title>3204020967684396260&#45;&gt;13740064308175729651</title>
<path fill="none" stroke="black" stroke-width="0.5" d="M226.16,-181.62C219.48,-177.56 211.43,-173.29 203.5,-169.53"/>
<polygon fill="black" stroke="black" stroke-width="0.5" points="204.88,-166.32 194.32,-165.41 202.01,-172.7 204.88,-166.32"/>
<text text-anchor="middle" x="205.83" y="-179.38" font-family="Times,serif" font-size="14.00">0.5</text>
</g>
<!-- 11645181932416102670 -->
<g id="node4" class="node">
<title>11645181932416102670</title>
<ellipse fill="none" stroke="black" cx="131.77" cy="-233.25" rx="27" ry="18"/>
<text text-anchor="middle" x="131.77" y="-229.55" font-family="Times,serif" font-size="14.00">h</text>
</g>
<!-- 11645181932416102670&#45;&gt;13740064308175729651 -->
<g id="edge7" class="edge">
<title>11645181932416102670&#45;&gt;13740064308175729651</title>
<path fill="none" stroke="black" stroke-width="0.5" d="M146.13,-217.69C151.58,-208.8 157.42,-197.43 161.92,-187.1"/>
<polygon fill="black" stroke="black" stroke-width="0.5" points="165.25,-188.21 165.76,-177.62 158.76,-185.58 165.25,-188.21"/>
<text text-anchor="middle" x="163.02" y="-191.19" font-family="Times,serif" font-size="14.00">0.5</text>
</g>
<!-- 10328041574859396536 -->
<g id="node9" class="node">
<title>10328041574859396536</title>
<ellipse fill="none" stroke="black" cx="99.7" cy="-302.78" rx="27" ry="18"/>
<text text-anchor="middle" x="99.7" y="-299.08" font-family="Times,serif" font-size="14.00">i</text>
</g>
<!-- 11645181932416102670&#45;&gt;10328041574859396536 -->
<g id="edge8" class="edge">
<title>11645181932416102670&#45;&gt;10328041574859396536</title>
<path fill="none" stroke="black" stroke-width="0.5" d="M117.87,-249C113.45,-256.74 108.88,-266.29 105.27,-275.18"/>
<polygon fill="black" stroke="black" stroke-width="0.5" points="101.89,-274.23 101.67,-284.82 108.45,-276.68 101.89,-274.23"/>
<text text-anchor="middle" x="102.57" y="-265.89" font-family="Times,serif" font-size="14.00">0.5</text>
</g>
<!-- 14413528218895301473&#45;&gt;3204020967684396260 -->
<g id="edge3" class="edge">
<title>14413528218895301473&#45;&gt;3204020967684396260</title>
<path fill="none" stroke="black" d="M294.91,-214.83C289.68,-211.76 283.66,-208.63 277.61,-205.78"/>
<polygon fill="black" stroke="black" points="278.72,-202.45 268.16,-201.59 275.88,-208.84 278.72,-202.45"/>
<text text-anchor="middle" x="282.76" y="-199.1" font-family="Times,serif" font-size="14.00">1</text>
</g>
<!-- 13740064308175729651&#45;&gt;14550334728282291830 -->
<g id="edge10" class="edge">
<title>13740064308175729651&#45;&gt;14550334728282291830</title>
<path fill="none" stroke="black" stroke-width="0.25" d="M152.45,-145.11C145.75,-141.06 137.69,-136.82 129.74,-133.09"/>
<polygon fill="black" stroke="black" stroke-width="0.25" points="131.1,-129.87 120.54,-129 128.25,-136.26 131.1,-129.87"/>
<text text-anchor="middle" x="153.6" y="-127.9" font-family="Times,serif" font-size="14.00">0.25</text>
</g>
<!-- 13740064308175729651&#45;&gt;3204020967684396260 -->
<g id="edge12" class="edge">
<title>13740064308175729651&#45;&gt;3204020967684396260</title>
<path fill="none" stroke="black" stroke-width="0.25" d="M184.39,-174.17C191.08,-178.23 199.12,-182.51 207.06,-186.26"/>
<polygon fill="black" stroke="black" stroke-width="0.25" points="205.68,-189.48 216.23,-190.38 208.55,-183.09 205.68,-189.48"/>
<text text-anchor="middle" x="183.22" y="-184.01" font-family="Times,serif" font-size="14.00">0.25</text>
</g>
<!-- 13740064308175729651&#45;&gt;11645181932416102670 -->
<g id="edge13" class="edge">
<title>13740064308175729651&#45;&gt;11645181932416102670</title>
<path fill="none" stroke="black" stroke-width="0.25" d="M154.09,-175.18C148.64,-184.07 142.79,-195.44 138.3,-205.77"/>
<polygon fill="black" stroke="black" stroke-width="0.25" points="134.97,-204.66 134.46,-215.24 141.46,-207.29 134.97,-204.66"/>
<text text-anchor="middle" x="133.69" y="-194.27" font-family="Times,serif" font-size="14.00">0.25</text>
</g>
<!-- 13740064308175729651&#45;&gt;189185847607106207 -->
<g id="edge11" class="edge">
<title>13740064308175729651&#45;&gt;189185847607106207</title>
<path fill="none" stroke="black" stroke-width="0.25" d="M182.78,-144.02C188.2,-135.13 194.02,-123.75 198.49,-113.41"/>
<polygon fill="black" stroke="black" stroke-width="0.25" points="201.82,-114.52 202.31,-103.94 195.33,-111.91 201.82,-114.52"/>
<text text-anchor="middle" x="203.13" y="-117.52" font-family="Times,serif" font-size="14.00">0.25</text>
</g>
<!-- 189185847607106207&#45;&gt;6734202283541158257 -->
<g id="edge5" class="edge">
<title>189185847607106207&#45;&gt;6734202283541158257</title>
<path fill="none" stroke="black" stroke-width="0.5" d="M219.82,-70.52C224.52,-63.1 229.43,-53.99 233.4,-45.44"/>
<polygon fill="black" stroke="black" stroke-width="0.5" points="236.66,-46.72 237.41,-36.15 230.23,-43.95 236.66,-46.72"/>
<text text-anchor="middle" x="235.61" y="-46.78" font-family="Times,serif" font-size="14.00">0.5</text>
</g>
<!-- 189185847607106207&#45;&gt;13740064308175729651 -->
<g id="edge4" class="edge">
<title>189185847607106207&#45;&gt;13740064308175729651</title>
<path fill="none" stroke="black" stroke-width="0.5" d="M190.63,-101.51C185.21,-110.41 179.39,-121.79 174.92,-132.13"/>
<polygon fill="black" stroke="black" stroke-width="0.5" points="171.59,-131.02 171.1,-141.6 178.08,-133.63 171.59,-131.02"/>
<text text-anchor="middle" x="173.77" y="-105.62" font-family="Times,serif" font-size="14.00">0.5</text>
</g>
<!-- 16827178101014766047&#45;&gt;14550334728282291830 -->
<g id="edge9" class="edge">
<title>16827178101014766047&#45;&gt;14550334728282291830</title>
<path fill="none" stroke="black" d="M42.29,-102.39C47.62,-105.81 53.81,-109.35 60.05,-112.57"/>
<polygon fill="black" stroke="black" points="58.59,-115.75 69.11,-117 61.66,-109.46 58.59,-115.75"/>
<text text-anchor="middle" x="47.67" y="-111.28" font-family="Times,serif" font-size="14.00">1</text>
</g>
<!-- 10328041574859396536&#45;&gt;11645181932416102670 -->
<g id="edge16" class="edge">
<title>10328041574859396536&#45;&gt;11645181932416102670</title>
<path fill="none" stroke="black" d="M113.59,-287.03C118.01,-279.29 122.59,-269.74 126.2,-260.85"/>
<polygon fill="black" stroke="black" points="129.58,-261.8 129.8,-251.21 123.02,-259.35 129.58,-261.8"/>
<text text-anchor="middle" x="116.4" y="-262.74" font-family="Times,serif" font-size="14.00">1</text>
</g>
</g>
</svg>
