<?xml version="1.0" encoding="UTF-8" standalone="no"?>
<!DOCTYPE svg PUBLIC "-//W3C//DTD SVG 1.1//EN"
 "http://www.w3.org/Graphics/SVG/1.1/DTD/svg11.dtd">
<!-- Generated by graphviz version 2.49.2 (0)
 -->
<!-- Pages: 1 -->
<svg width="290pt" height="235pt"
 viewBox="0.00 0.00 289.82 234.72" xmlns="http://www.w3.org/2000/svg" xmlns:xlink="http://www.w3.org/1999/xlink">
<g id="graph0" class="graph" transform="scale(1 1) rotate(0) translate(4 230.72)">
<polygon fill="white" stroke="transparent" points="-4,4 -4,-230.72 285.82,-230.72 285.82,4 -4,4"/>
<!-- 3204020967684396260 -->
<g id="node1" class="node">
<title>3204020967684396260</title>
<ellipse fill="none" stroke="black" cx="142.54" cy="-18" rx="27" ry="18"/>
<text text-anchor="middle" x="142.54" y="-14.3" font-family="Times,serif" font-size="14.00">f</text>
</g>
<!-- 3204020967684396260&#45;&gt;3204020967684396260 -->
<g id="edge5" class="edge">
<title>3204020967684396260&#45;&gt;3204020967684396260</title>
<path fill="none" stroke="black" stroke-width="0.25" d="M167.98,-24.69C178.57,-25.15 187.54,-22.92 187.54,-18 187.54,-14.77 183.67,-12.7 178.03,-11.79"/>
<polygon fill="black" stroke="black" stroke-width="0.25" points="178.14,-8.29 167.98,-11.31 177.8,-15.28 178.14,-8.29"/>
<text text-anchor="middle" x="200.04" y="-14.3" font-family="Times,serif" font-size="14.00">0.25</text>
</g>
<!-- 14550334728282291830 -->
<g id="node2" class="node">
<title>14550334728282291830</title>
<ellipse fill="none" stroke="black" cx="211.82" cy="-113.36" rx="27" ry="18"/>
<text text-anchor="middle" x="211.82" y="-109.66" font-family="Times,serif" font-size="14.00">b</text>
</g>
<!-- 3204020967684396260&#45;&gt;14550334728282291830 -->
<g id="edge1" class="edge">
<title>3204020967684396260&#45;&gt;14550334728282291830</title>
<path fill="none" stroke="black" stroke-width="0.25" d="M149.27,-35.88C158.44,-51.64 174.66,-74.54 188.38,-91.39"/>
<polygon fill="black" stroke="black" stroke-width="0.25" points="185.76,-93.72 194.86,-99.13 191.12,-89.22 185.76,-93.72"/>
<text text-anchor="middle" x="156.32" y="-67.43" font-family="Times,serif" font-size="14.00">0.25</text>
</g>
<!-- 6734202283541158257 -->
<g id="node3" class="node">
<title>6734202283541158257</title>
<ellipse fill="none" stroke="black" cx="30.44" cy="-172.3" rx="27" ry="18"/>
<text text-anchor="middle" x="30.44" y="-168.6" font-family="Times,serif" font-size="14.00">e</text>
</g>
<!-- 3204020967684396260&#45;&gt;6734202283541158257 -->
<g id="edge4" class="edge">
<title>3204020967684396260&#45;&gt;6734202283541158257</title>
<path fill="none" stroke="black" stroke-width="0.25" d="M126.53,-32.5C103.97,-58.62 63.78,-113.62 43.14,-146.35"/>
<polygon fill="black" stroke="black" stroke-width="0.25" points="40.11,-144.59 37.86,-154.95 46.07,-148.25 40.11,-144.59"/>
<text text-anchor="middle" x="72.33" y="-93.22" font-family="Times,serif" font-size="14.00">0.25</text>
</g>
<!-- 189185847607106207 -->
<g id="node4" class="node">
<title>189185847607106207</title>
<ellipse fill="none" stroke="black" cx="142.54" cy="-208.72" rx="27" ry="18"/>
<text text-anchor="middle" x="142.54" y="-205.02" font-family="Times,serif" font-size="14.00">d</text>
</g>
<!-- 3204020967684396260&#45;&gt;189185847607106207 -->
<g id="edge3" class="edge">
<title>3204020967684396260&#45;&gt;189185847607106207</title>
<path fill="none" stroke="black" stroke-width="0.25" d="M138.39,-35.94C135.21,-69.24 134.95,-140.81 137.58,-180.6"/>
<polygon fill="black" stroke="black" stroke-width="0.25" points="134.1,-180.99 138.38,-190.69 141.08,-180.44 134.1,-180.99"/>
<text text-anchor="middle" x="125.49" y="-112.07" font-family="Times,serif" font-size="14.00">0.25</text>
</g>
<!-- 16827178101014766047 -->
<g id="node5" class="node">
<title>16827178101014766047</title>
<ellipse fill="none" stroke="black" cx="30.44" cy="-54.42" rx="27" ry="18"/>
<text text-anchor="middle" x="30.44" y="-50.72" font-family="Times,serif" font-size="14.00">c</text>
</g>
<!-- 3204020967684396260&#45;&gt;16827178101014766047 -->
<g id="edge2" class="edge">
<title>3204020967684396260&#45;&gt;16827178101014766047</title>
<path fill="none" stroke="black" stroke-width="0.25" d="M115.61,-20.71C98.83,-24.91 77.25,-31.78 60,-38.36"/>
<polygon fill="black" stroke="black" stroke-width="0.25" points="58.41,-35.23 50.42,-42.19 61.01,-41.73 58.41,-35.23"/>
<text text-anchor="middle" x="75.31" y="-18.34" font-family="Times,serif" font-size="14.00">0.25</text>
</g>
<!-- 14550334728282291830&#45;&gt;3204020967684396260 -->
<g id="edge10" class="edge">
<title>14550334728282291830&#45;&gt;3204020967684396260</title>
<path fill="none" stroke="black" stroke-width="0.25" d="M205.09,-95.48C195.92,-79.72 179.69,-56.82 165.98,-39.97"/>
<polygon fill="black" stroke="black" stroke-width="0.25" points="168.6,-37.65 159.5,-32.23 163.24,-42.14 168.6,-37.65"/>
<text text-anchor="middle" x="198.04" y="-71.53" font-family="Times,serif" font-size="14.00">0.25</text>
</g>
<!-- 14550334728282291830&#45;&gt;14550334728282291830 -->
<g id="edge6" class="edge">
<title>14550334728282291830&#45;&gt;14550334728282291830</title>
<path fill="none" stroke="black" stroke-width="0.25" d="M237.26,-120.05C247.85,-120.51 256.82,-118.28 256.82,-113.36 256.82,-110.13 252.96,-108.06 247.31,-107.15"/>
<polygon fill="black" stroke="black" stroke-width="0.25" points="247.42,-103.65 237.26,-106.67 247.09,-110.64 247.42,-103.65"/>
<text text-anchor="middle" x="269.32" y="-109.66" font-family="Times,serif" font-size="14.00">0.25</text>
</g>
<!-- 14550334728282291830&#45;&gt;6734202283541158257 -->
<g id="edge9" class="edge">
<title>14550334728282291830&#45;&gt;6734202283541158257</title>
<path fill="none" stroke="black" stroke-width="0.25" d="M185.1,-116.95C151.94,-125.22 95.56,-143.38 60.79,-156.87"/>
<polygon fill="black" stroke="black" stroke-width="0.25" points="59.16,-153.75 51.17,-160.71 61.76,-160.25 59.16,-153.75"/>
<text text-anchor="middle" x="135.45" y="-140.71" font-family="Times,serif" font-size="14.00">0.25</text>
</g>
<!-- 14550334728282291830&#45;&gt;189185847607106207 -->
<g id="edge8" class="edge">
<title>14550334728282291830&#45;&gt;189185847607106207</title>
<path fill="none" stroke="black" stroke-width="0.25" d="M194.77,-127.7C182.18,-142.19 165.57,-164.78 154.37,-182.47"/>
<polygon fill="black" stroke="black" stroke-width="0.25" points="151.27,-180.84 149.06,-191.2 157.25,-184.47 151.27,-180.84"/>
<text text-anchor="middle" x="162.07" y="-158.88" font-family="Times,serif" font-size="14.00">0.25</text>
</g>
<!-- 14550334728282291830&#45;&gt;16827178101014766047 -->
<g id="edge7" class="edge">
<title>14550334728282291830&#45;&gt;16827178101014766047</title>
<path fill="none" stroke="black" stroke-width="0.25" d="M191.01,-101.75C160.75,-89.25 104.21,-70.59 66.94,-60.55"/>
<polygon fill="black" stroke="black" stroke-width="0.25" points="67.53,-57.09 56.97,-57.97 65.77,-63.87 67.53,-57.09"/>
<text text-anchor="middle" x="116.47" y="-69.95" font-family="Times,serif" font-size="14.00">0.25</text>
</g>
<!-- 6734202283541158257&#45;&gt;3204020967684396260 -->
<g id="edge25" class="edge">
<title>6734202283541158257&#45;&gt;3204020967684396260</title>
<path fill="none" stroke="black" stroke-width="0.25" d="M46.45,-157.8C69.01,-131.67 109.19,-76.68 129.84,-43.95"/>
<polygon fill="black" stroke="black" stroke-width="0.25" points="132.87,-45.7 135.11,-35.35 126.9,-42.04 132.87,-45.7"/>
<text text-anchor="middle" x="100.64" y="-104.67" font-family="Times,serif" font-size="14.00">0.25</text>
</g>
<!-- 6734202283541158257&#45;&gt;14550334728282291830 -->
<g id="edge21" class="edge">
<title>6734202283541158257&#45;&gt;14550334728282291830</title>
<path fill="none" stroke="black" stroke-width="0.25" d="M57.15,-168.71C90.32,-160.44 146.7,-142.27 181.46,-128.79"/>
<polygon fill="black" stroke="black" stroke-width="0.25" points="183.1,-131.9 191.08,-124.94 180.5,-125.4 183.1,-131.9"/>
<text text-anchor="middle" x="106.81" y="-152.55" font-family="Times,serif" font-size="14.00">0.25</text>
</g>
<!-- 6734202283541158257&#45;&gt;6734202283541158257 -->
<g id="edge24" class="edge">
<title>6734202283541158257&#45;&gt;6734202283541158257</title>
<path fill="none" stroke="black" stroke-width="0.25" d="M55.88,-178.99C66.46,-179.45 75.44,-177.22 75.44,-172.3 75.44,-169.07 71.57,-167 65.92,-166.08"/>
<polygon fill="black" stroke="black" stroke-width="0.25" points="66.03,-162.59 55.88,-165.61 65.7,-169.58 66.03,-162.59"/>
<text text-anchor="middle" x="87.94" y="-168.6" font-family="Times,serif" font-size="14.00">0.25</text>
</g>
<!-- 6734202283541158257&#45;&gt;189185847607106207 -->
<g id="edge23" class="edge">
<title>6734202283541158257&#45;&gt;189185847607106207</title>
<path fill="none" stroke="black" stroke-width="0.25" d="M50.36,-184.51C65.72,-190.94 87.37,-198.27 105.83,-203.41"/>
<polygon fill="black" stroke="black" stroke-width="0.25" points="105.13,-206.85 115.7,-206.03 106.93,-200.08 105.13,-206.85"/>
<text text-anchor="middle" x="65.6" y="-197.76" font-family="Times,serif" font-size="14.00">0.25</text>
</g>
<!-- 6734202283541158257&#45;&gt;16827178101014766047 -->
<g id="edge22" class="edge">
<title>6734202283541158257&#45;&gt;16827178101014766047</title>
<path fill="none" stroke="black" stroke-width="0.25" d="M35.44,-154.39C37.43,-135.35 37.72,-104.97 36.3,-82.7"/>
<polygon fill="black" stroke="black" stroke-width="0.25" points="39.77,-82.18 35.46,-72.49 32.79,-82.75 39.77,-82.18"/>
<text text-anchor="middle" x="23.37" y="-122.34" font-family="Times,serif" font-size="14.00">0.25</text>
</g>
<!-- 189185847607106207&#45;&gt;3204020967684396260 -->
<g id="edge15" class="edge">
<title>189185847607106207&#45;&gt;3204020967684396260</title>
<path fill="none" stroke="black" stroke-width="0.25" d="M146.68,-190.78C149.86,-157.48 150.13,-85.91 147.49,-46.12"/>
<polygon fill="black" stroke="black" stroke-width="0.25" points="150.97,-45.73 146.69,-36.03 143.99,-46.28 150.97,-45.73"/>
<text text-anchor="middle" x="159.59" y="-122.25" font-family="Times,serif" font-size="14.00">0.25</text>
</g>
<!-- 189185847607106207&#45;&gt;14550334728282291830 -->
<g id="edge11" class="edge">
<title>189185847607106207&#45;&gt;14550334728282291830</title>
<path fill="none" stroke="black" stroke-width="0.25" d="M159.59,-194.38C172.18,-179.89 188.79,-157.3 199.99,-139.61"/>
<polygon fill="black" stroke="black" stroke-width="0.25" points="203.09,-141.24 205.3,-130.88 197.11,-137.61 203.09,-141.24"/>
<text text-anchor="middle" x="192.29" y="-170.8" font-family="Times,serif" font-size="14.00">0.25</text>
</g>
<!-- 189185847607106207&#45;&gt;6734202283541158257 -->
<g id="edge14" class="edge">
<title>189185847607106207&#45;&gt;6734202283541158257</title>
<path fill="none" stroke="black" stroke-width="0.25" d="M122.61,-196.51C107.25,-190.07 85.61,-182.75 67.15,-177.6"/>
<polygon fill="black" stroke="black" stroke-width="0.25" points="67.84,-174.17 57.28,-174.99 66.05,-180.93 67.84,-174.17"/>
<text text-anchor="middle" x="107.38" y="-175.85" font-family="Times,serif" font-size="14.00">0.25</text>
</g>
<!-- 189185847607106207&#45;&gt;189185847607106207 -->
<g id="edge13" class="edge">
<title>189185847607106207&#45;&gt;189185847607106207</title>
<path fill="none" stroke="black" stroke-width="0.25" d="M167.98,-215.41C178.57,-215.87 187.54,-213.64 187.54,-208.72 187.54,-205.49 183.67,-203.42 178.03,-202.51"/>
<polygon fill="black" stroke="black" stroke-width="0.25" points="178.14,-199.01 167.98,-202.03 177.8,-206 178.14,-199.01"/>
<text text-anchor="middle" x="200.04" y="-205.02" font-family="Times,serif" font-size="14.00">0.25</text>
</g>
<!-- 189185847607106207&#45;&gt;16827178101014766047 -->
<g id="edge12" class="edge">
<title>189185847607106207&#45;&gt;16827178101014766047</title>
<path fill="none" stroke="black" stroke-width="0.25" d="M134.99,-191.17C118.23,-162.94 78.5,-107.72 53.02,-76.74"/>
<polygon fill="black" stroke="black" stroke-width="0.25" points="55.68,-74.46 46.56,-69.05 50.32,-78.96 55.68,-74.46"/>
<text text-anchor="middle" x="81.51" y="-137.76" font-family="Times,serif" font-size="14.00">0.25</text>
</g>
<!-- 16827178101014766047&#45;&gt;3204020967684396260 -->
<g id="edge20" class="edge">
<title>16827178101014766047&#45;&gt;3204020967684396260</title>
<path fill="none" stroke="black" stroke-width="0.25" d="M57.37,-51.71C74.14,-47.52 95.72,-40.65 112.97,-34.06"/>
<polygon fill="black" stroke="black" stroke-width="0.25" points="114.56,-37.19 122.55,-30.24 111.97,-30.69 114.56,-37.19"/>
<text text-anchor="middle" x="97.67" y="-31.68" font-family="Times,serif" font-size="14.00">0.25</text>
</g>
<!-- 16827178101014766047&#45;&gt;14550334728282291830 -->
<g id="edge16" class="edge">
<title>16827178101014766047&#45;&gt;14550334728282291830</title>
<path fill="none" stroke="black" stroke-width="0.25" d="M51.25,-66.04C81.51,-78.54 138.05,-97.2 175.32,-107.23"/>
<polygon fill="black" stroke="black" stroke-width="0.25" points="174.73,-110.69 185.29,-109.82 176.49,-103.92 174.73,-110.69"/>
<text text-anchor="middle" x="125.79" y="-90.44" font-family="Times,serif" font-size="14.00">0.25</text>
</g>
<!-- 16827178101014766047&#45;&gt;6734202283541158257 -->
<g id="edge19" class="edge">
<title>16827178101014766047&#45;&gt;6734202283541158257</title>
<path fill="none" stroke="black" stroke-width="0.25" d="M25.43,-72.33C23.44,-91.37 23.15,-121.75 24.57,-144.02"/>
<polygon fill="black" stroke="black" stroke-width="0.25" points="21.1,-144.54 25.41,-154.23 28.08,-143.97 21.1,-144.54"/>
<text text-anchor="middle" x="12.5" y="-96.98" font-family="Times,serif" font-size="14.00">0.25</text>
</g>
<!-- 16827178101014766047&#45;&gt;189185847607106207 -->
<g id="edge18" class="edge">
<title>16827178101014766047&#45;&gt;189185847607106207</title>
<path fill="none" stroke="black" stroke-width="0.25" d="M37.98,-71.98C54.75,-100.21 94.47,-155.43 119.95,-186.4"/>
<polygon fill="black" stroke="black" stroke-width="0.25" points="117.3,-188.69 126.41,-194.09 122.66,-184.18 117.3,-188.69"/>
<text text-anchor="middle" x="66.47" y="-117.99" font-family="Times,serif" font-size="14.00">0.25</text>
</g>
<!-- 16827178101014766047&#45;&gt;16827178101014766047 -->
<g id="edge17" class="edge">
<title>16827178101014766047&#45;&gt;16827178101014766047</title>
<path fill="none" stroke="black" stroke-width="0.25" d="M55.88,-61.12C66.46,-61.58 75.44,-59.35 75.44,-54.42 75.44,-51.19 71.57,-49.12 65.92,-48.21"/>
<polygon fill="black" stroke="black" stroke-width="0.25" points="66.03,-44.71 55.88,-47.73 65.7,-51.71 66.03,-44.71"/>
<text text-anchor="middle" x="87.94" y="-50.72" font-family="Times,serif" font-size="14.00">0.25</text>
</g>
</g>
</svg>
