<?xml version="1.0" encoding="UTF-8" standalone="no"?>
<!DOCTYPE svg PUBLIC "-//W3C//DTD SVG 1.1//EN"
 "http://www.w3.org/Graphics/SVG/1.1/DTD/svg11.dtd">
<!-- Generated by graphviz version 2.49.2 (0)
 -->
<!-- Pages: 1 -->
<svg width="626pt" height="607pt"
 viewBox="0.00 0.00 626.15 606.75" xmlns="http://www.w3.org/2000/svg" xmlns:xlink="http://www.w3.org/1999/xlink">
<g id="graph0" class="graph" transform="scale(1 1) rotate(0) translate(4 602.75)">
<polygon fill="white" stroke="transparent" points="-4,4 -4,-602.75 622.15,-602.75 622.15,4 -4,4"/>
<!-- 17209522482677003624 -->
<g id="node1" class="node">
<title>17209522482677003624</title>
<ellipse fill="none" stroke="black" cx="558.68" cy="-167.65" rx="27" ry="18"/>
<text text-anchor="middle" x="558.68" y="-163.95" font-family="Times,serif" font-size="14.00">bb</text>
</g>
<!-- 189185847607106207 -->
<g id="node2" class="node">
<title>189185847607106207</title>
<ellipse fill="none" stroke="black" cx="468.72" cy="-66.11" rx="27" ry="18"/>
<text text-anchor="middle" x="468.72" y="-62.41" font-family="Times,serif" font-size="14.00">d</text>
</g>
<!-- 17209522482677003624&#45;&gt;189185847607106207 -->
<g id="edge16" class="edge">
<title>17209522482677003624&#45;&gt;189185847607106207</title>
<path fill="none" stroke="black" d="M544.62,-151.79C529.84,-135.09 506.4,-108.65 489.48,-89.55"/>
<polygon fill="black" stroke="black" points="491.93,-87.03 482.68,-81.86 486.69,-91.67 491.93,-87.03"/>
<text text-anchor="middle" x="513.55" y="-124.47" font-family="Times,serif" font-size="14.00">1</text>
</g>
<!-- 7981949508130699630 -->
<g id="node6" class="node">
<title>7981949508130699630</title>
<ellipse fill="none" stroke="black" cx="341.87" cy="-18" rx="27" ry="18"/>
<text text-anchor="middle" x="341.87" y="-14.3" font-family="Times,serif" font-size="14.00">dd</text>
</g>
<!-- 189185847607106207&#45;&gt;7981949508130699630 -->
<g id="edge3" class="edge">
<title>189185847607106207&#45;&gt;7981949508130699630</title>
<path fill="none" stroke="black" stroke-width="0.8" d="M445.16,-57.17C425.52,-49.73 397.32,-39.03 375.34,-30.69"/>
<polygon fill="black" stroke="black" stroke-width="0.8" points="376.33,-27.32 365.74,-27.05 373.84,-33.87 376.33,-27.32"/>
<text text-anchor="middle" x="401.25" y="-47.73" font-family="Times,serif" font-size="14.00">0.8</text>
</g>
<!-- 13740064308175729651 -->
<g id="node8" class="node">
<title>13740064308175729651</title>
<ellipse fill="none" stroke="black" cx="95.54" cy="-111.42" rx="27" ry="18"/>
<text text-anchor="middle" x="95.54" y="-107.72" font-family="Times,serif" font-size="14.00">a</text>
</g>
<!-- 189185847607106207&#45;&gt;13740064308175729651 -->
<g id="edge2" class="edge">
<title>189185847607106207&#45;&gt;13740064308175729651</title>
<path fill="none" stroke="black" stroke-width="0.2" d="M441.88,-69.37C376.25,-77.33 207.57,-97.82 132.51,-106.93"/>
<polygon fill="black" stroke="black" stroke-width="0.2" points="131.64,-103.51 122.14,-108.19 132.49,-110.46 131.64,-103.51"/>
<text text-anchor="middle" x="278.19" y="-91.95" font-family="Times,serif" font-size="14.00">0.2</text>
</g>
<!-- 731513420093289167 -->
<g id="node3" class="node">
<title>731513420093289167</title>
<ellipse fill="none" stroke="black" cx="207.19" cy="-564.4" rx="27" ry="18"/>
<text text-anchor="middle" x="207.19" y="-560.7" font-family="Times,serif" font-size="14.00">aa</text>
</g>
<!-- 14550334728282291830 -->
<g id="node7" class="node">
<title>14550334728282291830</title>
<ellipse fill="none" stroke="black" cx="95.54" cy="-487.33" rx="27" ry="18"/>
<text text-anchor="middle" x="95.54" y="-483.63" font-family="Times,serif" font-size="14.00">b</text>
</g>
<!-- 731513420093289167&#45;&gt;14550334728282291830 -->
<g id="edge18" class="edge">
<title>731513420093289167&#45;&gt;14550334728282291830</title>
<path fill="none" stroke="black" stroke-width="0.2" d="M188.25,-551.33C170.37,-538.98 143.34,-520.33 123.08,-506.34"/>
<polygon fill="black" stroke="black" stroke-width="0.2" points="124.79,-503.27 114.58,-500.47 120.82,-509.03 124.79,-503.27"/>
<text text-anchor="middle" x="146.67" y="-532.63" font-family="Times,serif" font-size="14.00">0.2</text>
</g>
<!-- 10007278257170231056 -->
<g id="node10" class="node">
<title>10007278257170231056</title>
<ellipse fill="none" stroke="black" cx="341.87" cy="-580.75" rx="27" ry="18"/>
<text text-anchor="middle" x="341.87" y="-577.05" font-family="Times,serif" font-size="14.00">aaa</text>
</g>
<!-- 731513420093289167&#45;&gt;10007278257170231056 -->
<g id="edge19" class="edge">
<title>731513420093289167&#45;&gt;10007278257170231056</title>
<path fill="none" stroke="black" stroke-width="0.8" d="M233.8,-567.63C254.05,-570.09 282.17,-573.5 304.65,-576.23"/>
<polygon fill="black" stroke="black" stroke-width="0.8" points="304.51,-579.74 314.86,-577.47 305.35,-572.79 304.51,-579.74"/>
<text text-anchor="middle" x="260.23" y="-575.73" font-family="Times,serif" font-size="14.00">0.8</text>
</g>
<!-- 4241131330312244662 -->
<g id="node4" class="node">
<title>4241131330312244662</title>
<ellipse fill="none" stroke="black" cx="207.19" cy="-34.35" rx="27" ry="18"/>
<text text-anchor="middle" x="207.19" y="-30.65" font-family="Times,serif" font-size="14.00">ddd</text>
</g>
<!-- 4241131330312244662&#45;&gt;13740064308175729651 -->
<g id="edge12" class="edge">
<title>4241131330312244662&#45;&gt;13740064308175729651</title>
<path fill="none" stroke="black" stroke-width="0.2" d="M188.25,-47.43C170.37,-59.77 143.34,-78.43 123.08,-92.41"/>
<polygon fill="black" stroke="black" stroke-width="0.2" points="120.82,-89.72 114.58,-98.28 124.79,-95.48 120.82,-89.72"/>
<text text-anchor="middle" x="146.67" y="-73.72" font-family="Times,serif" font-size="14.00">0.2</text>
</g>
<!-- 8030720632555776540 -->
<g id="node9" class="node">
<title>8030720632555776540</title>
<ellipse fill="none" stroke="black" cx="32.5" cy="-231.54" rx="28.7" ry="18"/>
<text text-anchor="middle" x="32.5" y="-227.84" font-family="Times,serif" font-size="14.00">dddd</text>
</g>
<!-- 4241131330312244662&#45;&gt;8030720632555776540 -->
<g id="edge13" class="edge">
<title>4241131330312244662&#45;&gt;8030720632555776540</title>
<path fill="none" stroke="black" stroke-width="0.8" d="M193.19,-50.16C162.53,-84.77 89.29,-167.43 53.25,-208.12"/>
<polygon fill="black" stroke="black" stroke-width="0.8" points="50.58,-205.86 46.56,-215.67 55.82,-210.5 50.58,-205.86"/>
<text text-anchor="middle" x="114.22" y="-132.94" font-family="Times,serif" font-size="14.00">0.8</text>
</g>
<!-- 16827178101014766047 -->
<g id="node5" class="node">
<title>16827178101014766047</title>
<ellipse fill="none" stroke="black" cx="468.72" cy="-532.65" rx="27" ry="18"/>
<text text-anchor="middle" x="468.72" y="-528.95" font-family="Times,serif" font-size="14.00">c</text>
</g>
<!-- 11760518850506415850 -->
<g id="node11" class="node">
<title>11760518850506415850</title>
<ellipse fill="none" stroke="black" cx="558.68" cy="-431.1" rx="27" ry="18"/>
<text text-anchor="middle" x="558.68" y="-427.4" font-family="Times,serif" font-size="14.00">cc</text>
</g>
<!-- 16827178101014766047&#45;&gt;11760518850506415850 -->
<g id="edge4" class="edge">
<title>16827178101014766047&#45;&gt;11760518850506415850</title>
<path fill="none" stroke="black" d="M482.77,-516.78C497.56,-500.09 520.99,-473.64 537.91,-454.54"/>
<polygon fill="black" stroke="black" points="540.71,-456.66 544.72,-446.85 535.47,-452.02 540.71,-456.66"/>
<text text-anchor="middle" x="506.84" y="-489.46" font-family="Times,serif" font-size="14.00">1</text>
</g>
<!-- 7981949508130699630&#45;&gt;4241131330312244662 -->
<g id="edge11" class="edge">
<title>7981949508130699630&#45;&gt;4241131330312244662</title>
<path fill="none" stroke="black" stroke-width="0.8" d="M315.26,-21.23C295.01,-23.69 266.89,-27.1 244.41,-29.83"/>
<polygon fill="black" stroke="black" stroke-width="0.8" points="243.71,-26.39 234.21,-31.07 244.56,-33.34 243.71,-26.39"/>
<text text-anchor="middle" x="270.84" y="-29.33" font-family="Times,serif" font-size="14.00">0.8</text>
</g>
<!-- 7981949508130699630&#45;&gt;13740064308175729651 -->
<g id="edge10" class="edge">
<title>7981949508130699630&#45;&gt;13740064308175729651</title>
<path fill="none" stroke="black" stroke-width="0.2" d="M318.25,-26.96C274.11,-43.7 179.02,-79.76 128.56,-98.9"/>
<polygon fill="black" stroke="black" stroke-width="0.2" points="127.2,-95.67 119.09,-102.49 129.68,-102.22 127.2,-95.67"/>
<text text-anchor="middle" x="214.4" y="-66.73" font-family="Times,serif" font-size="14.00">0.2</text>
</g>
<!-- 14550334728282291830&#45;&gt;17209522482677003624 -->
<g id="edge9" class="edge">
<title>14550334728282291830&#45;&gt;17209522482677003624</title>
<path fill="none" stroke="black" d="M114.56,-474.21C187.06,-424.16 446.28,-245.23 531.39,-186.49"/>
<polygon fill="black" stroke="black" points="533.52,-189.28 539.76,-180.71 529.54,-183.51 533.52,-189.28"/>
<text text-anchor="middle" x="319.48" y="-334.15" font-family="Times,serif" font-size="14.00">1</text>
</g>
<!-- 13740064308175729651&#45;&gt;731513420093289167 -->
<g id="edge6" class="edge">
<title>13740064308175729651&#45;&gt;731513420093289167</title>
<path fill="none" stroke="black" stroke-width="0.8" d="M99.99,-129.46C117.18,-199.2 179.38,-451.57 200.29,-536.38"/>
<polygon fill="black" stroke="black" stroke-width="0.8" points="196.94,-537.44 202.74,-546.31 203.74,-535.76 196.94,-537.44"/>
<text text-anchor="middle" x="141.14" y="-336.72" font-family="Times,serif" font-size="14.00">0.8</text>
</g>
<!-- 13740064308175729651&#45;&gt;14550334728282291830 -->
<g id="edge5" class="edge">
<title>13740064308175729651&#45;&gt;14550334728282291830</title>
<path fill="none" stroke="black" stroke-width="0.2" d="M95.54,-129.55C95.54,-189.95 95.54,-384.69 95.54,-458.56"/>
<polygon fill="black" stroke="black" stroke-width="0.2" points="92.04,-458.94 95.54,-468.94 99.04,-458.94 92.04,-458.94"/>
<text text-anchor="middle" x="86.54" y="-297.85" font-family="Times,serif" font-size="14.00">0.2</text>
</g>
<!-- 8030720632555776540&#45;&gt;13740064308175729651 -->
<g id="edge14" class="edge">
<title>8030720632555776540&#45;&gt;13740064308175729651</title>
<path fill="none" stroke="black" stroke-width="0.2" d="M41.53,-214.33C52.06,-194.26 69.59,-160.87 81.81,-137.59"/>
<polygon fill="black" stroke="black" stroke-width="0.2" points="84.98,-139.08 86.53,-128.6 78.78,-135.83 84.98,-139.08"/>
<text text-anchor="middle" x="52.67" y="-179.76" font-family="Times,serif" font-size="14.00">0.2</text>
</g>
<!-- 15512096269748922377 -->
<g id="node13" class="node">
<title>15512096269748922377</title>
<ellipse fill="none" stroke="black" cx="32.5" cy="-367.21" rx="32.49" ry="18"/>
<text text-anchor="middle" x="32.5" y="-363.51" font-family="Times,serif" font-size="14.00">ddddd</text>
</g>
<!-- 8030720632555776540&#45;&gt;15512096269748922377 -->
<g id="edge15" class="edge">
<title>8030720632555776540&#45;&gt;15512096269748922377</title>
<path fill="none" stroke="black" stroke-width="0.8" d="M32.5,-249.56C32.5,-272.36 32.5,-311.91 32.5,-338.8"/>
<polygon fill="black" stroke="black" stroke-width="0.8" points="29,-339.12 32.5,-349.12 36,-339.12 29,-339.12"/>
<text text-anchor="middle" x="23.5" y="-297.98" font-family="Times,serif" font-size="14.00">0.8</text>
</g>
<!-- 10007278257170231056&#45;&gt;16827178101014766047 -->
<g id="edge1" class="edge">
<title>10007278257170231056&#45;&gt;16827178101014766047</title>
<path fill="none" stroke="black" d="M365.43,-571.82C385.06,-564.37 413.27,-553.67 435.25,-545.34"/>
<polygon fill="black" stroke="black" points="436.74,-548.52 444.85,-541.7 434.26,-541.97 436.74,-548.52"/>
<text text-anchor="middle" x="396.84" y="-562.38" font-family="Times,serif" font-size="14.00">1</text>
</g>
<!-- 8094646564609630021 -->
<g id="node12" class="node">
<title>8094646564609630021</title>
<ellipse fill="none" stroke="black" cx="591.15" cy="-299.38" rx="27" ry="18"/>
<text text-anchor="middle" x="591.15" y="-295.68" font-family="Times,serif" font-size="14.00">ccc</text>
</g>
<!-- 11760518850506415850&#45;&gt;8094646564609630021 -->
<g id="edge7" class="edge">
<title>11760518850506415850&#45;&gt;8094646564609630021</title>
<path fill="none" stroke="black" d="M563.06,-413.33C568.5,-391.24 577.87,-353.26 584.27,-327.27"/>
<polygon fill="black" stroke="black" points="587.74,-327.83 586.73,-317.28 580.94,-326.15 587.74,-327.83"/>
<text text-anchor="middle" x="570.17" y="-374.1" font-family="Times,serif" font-size="14.00">1</text>
</g>
<!-- 8094646564609630021&#45;&gt;13740064308175729651 -->
<g id="edge17" class="edge">
<title>8094646564609630021&#45;&gt;13740064308175729651</title>
<path fill="none" stroke="black" d="M567.58,-290.44C487.02,-259.89 222.49,-159.57 128.8,-124.03"/>
<polygon fill="black" stroke="black" points="129.85,-120.69 119.26,-120.41 127.37,-127.23 129.85,-120.69"/>
<text text-anchor="middle" x="344.69" y="-211.03" font-family="Times,serif" font-size="14.00">1</text>
</g>
<!-- 15512096269748922377&#45;&gt;14550334728282291830 -->
<g id="edge8" class="edge">
<title>15512096269748922377&#45;&gt;14550334728282291830</title>
<path fill="none" stroke="black" d="M41.66,-384.68C52.23,-404.81 69.7,-438.09 81.87,-461.28"/>
<polygon fill="black" stroke="black" points="78.82,-463.01 86.57,-470.23 85.02,-459.75 78.82,-463.01"/>
<text text-anchor="middle" x="58.27" y="-426.78" font-family="Times,serif" font-size="14.00">1</text>
</g>
</g>
</svg>
