<?xml version="1.0" encoding="UTF-8" standalone="no"?>
<!DOCTYPE svg PUBLIC "-//W3C//DTD SVG 1.1//EN"
 "http://www.w3.org/Graphics/SVG/1.1/DTD/svg11.dtd">
<!-- Generated by graphviz version 2.49.2 (0)
 -->
<!-- Pages: 1 -->
<svg width="305pt" height="204pt"
 viewBox="0.00 0.00 305.43 204.43" xmlns="http://www.w3.org/2000/svg" xmlns:xlink="http://www.w3.org/1999/xlink">
<g id="graph0" class="graph" transform="scale(1 1) rotate(0) translate(4 200.43)">
<polygon fill="white" stroke="transparent" points="-4,4 -4,-200.43 301.43,-200.43 301.43,4 -4,4"/>
<!-- 9543954270121841530 -->
<g id="node1" class="node">
<title>9543954270121841530</title>
<ellipse fill="none" stroke="black" cx="107.21" cy="-18" rx="27" ry="18"/>
<text text-anchor="middle" x="107.21" y="-14.3" font-family="Times,serif" font-size="14.00">2</text>
</g>
<!-- 9543954270121841530&#45;&gt;9543954270121841530 -->
<g id="edge7" class="edge">
<title>9543954270121841530&#45;&gt;9543954270121841530</title>
<path fill="none" stroke="black" stroke-width="0.8" d="M132.66,-24.69C143.24,-25.15 152.21,-22.92 152.21,-18 152.21,-14.77 148.35,-12.7 142.7,-11.79"/>
<polygon fill="black" stroke="black" stroke-width="0.8" points="142.81,-8.29 132.66,-11.31 142.48,-15.28 142.81,-8.29"/>
<text text-anchor="middle" x="184.71" y="-14.3" font-family="Times,serif" font-size="14.00">0.79999995</text>
</g>
<!-- 10475910883591376841 -->
<g id="node2" class="node">
<title>10475910883591376841</title>
<ellipse fill="none" stroke="black" cx="27" cy="-98.21" rx="27" ry="18"/>
<text text-anchor="middle" x="27" y="-94.51" font-family="Times,serif" font-size="14.00">3</text>
</g>
<!-- 9543954270121841530&#45;&gt;10475910883591376841 -->
<g id="edge8" class="edge">
<title>9543954270121841530&#45;&gt;10475910883591376841</title>
<path fill="none" stroke="black" stroke-width="0.1" d="M87.06,-30.31C73.57,-41.77 56.14,-58.98 43.47,-73.27"/>
<polygon fill="black" stroke="black" stroke-width="0.1" points="40.47,-71.39 36.63,-81.27 45.79,-75.94 40.47,-71.39"/>
<text text-anchor="middle" x="56.27" y="-55.59" font-family="Times,serif" font-size="14.00">0.1</text>
</g>
<!-- 9108380693033140644 -->
<g id="node4" class="node">
<title>9108380693033140644</title>
<ellipse fill="none" stroke="black" cx="187.43" cy="-98.21" rx="27" ry="18"/>
<text text-anchor="middle" x="187.43" y="-94.51" font-family="Times,serif" font-size="14.00">1</text>
</g>
<!-- 9543954270121841530&#45;&gt;9108380693033140644 -->
<g id="edge9" class="edge">
<title>9543954270121841530&#45;&gt;9108380693033140644</title>
<path fill="none" stroke="black" stroke-width="0.1" d="M116.81,-34.9C127.44,-47.91 144.78,-65.74 159.67,-79.22"/>
<polygon fill="black" stroke="black" stroke-width="0.1" points="157.36,-81.85 167.18,-85.83 161.98,-76.59 157.36,-81.85"/>
<text text-anchor="middle" x="129.24" y="-60.86" font-family="Times,serif" font-size="14.00">0.1</text>
</g>
<!-- 10475910883591376841&#45;&gt;9543954270121841530 -->
<g id="edge6" class="edge">
<title>10475910883591376841&#45;&gt;9543954270121841530</title>
<path fill="none" stroke="black" stroke-width="0.1" d="M47.16,-85.91C60.65,-74.45 78.07,-57.23 90.74,-42.95"/>
<polygon fill="black" stroke="black" stroke-width="0.1" points="93.75,-44.82 97.58,-34.95 88.42,-40.27 93.75,-44.82"/>
<text text-anchor="middle" x="77.95" y="-68.23" font-family="Times,serif" font-size="14.00">0.1</text>
</g>
<!-- 10475910883591376841&#45;&gt;10475910883591376841 -->
<g id="edge4" class="edge">
<title>10475910883591376841&#45;&gt;10475910883591376841</title>
<path fill="none" stroke="black" stroke-width="0.8" d="M52.44,-104.9C63.03,-105.37 72,-103.14 72,-98.21 72,-94.98 68.14,-92.91 62.49,-92"/>
<polygon fill="black" stroke="black" stroke-width="0.8" points="62.6,-88.5 52.44,-91.52 62.27,-95.5 62.6,-88.5"/>
<text text-anchor="middle" x="104.5" y="-94.51" font-family="Times,serif" font-size="14.00">0.79999995</text>
</g>
<!-- 15253010036835121515 -->
<g id="node3" class="node">
<title>15253010036835121515</title>
<ellipse fill="none" stroke="black" cx="107.21" cy="-178.43" rx="27" ry="18"/>
<text text-anchor="middle" x="107.21" y="-174.73" font-family="Times,serif" font-size="14.00">4</text>
</g>
<!-- 10475910883591376841&#45;&gt;15253010036835121515 -->
<g id="edge5" class="edge">
<title>10475910883591376841&#45;&gt;15253010036835121515</title>
<path fill="none" stroke="black" stroke-width="0.1" d="M36.59,-115.11C47.23,-128.12 64.57,-145.95 79.46,-159.44"/>
<polygon fill="black" stroke="black" stroke-width="0.1" points="77.15,-162.07 86.97,-166.04 81.77,-156.81 77.15,-162.07"/>
<text text-anchor="middle" x="49.02" y="-141.07" font-family="Times,serif" font-size="14.00">0.1</text>
</g>
<!-- 15253010036835121515&#45;&gt;10475910883591376841 -->
<g id="edge2" class="edge">
<title>15253010036835121515&#45;&gt;10475910883591376841</title>
<path fill="none" stroke="black" stroke-width="0.1" d="M97.62,-161.53C86.99,-148.52 69.64,-130.69 54.76,-117.21"/>
<polygon fill="black" stroke="black" stroke-width="0.1" points="57.07,-114.58 47.25,-110.6 52.44,-119.83 57.07,-114.58"/>
<text text-anchor="middle" x="67.19" y="-143.17" font-family="Times,serif" font-size="14.00">0.1</text>
</g>
<!-- 15253010036835121515&#45;&gt;15253010036835121515 -->
<g id="edge1" class="edge">
<title>15253010036835121515&#45;&gt;15253010036835121515</title>
<path fill="none" stroke="black" stroke-width="0.8" d="M132.66,-185.12C143.24,-185.58 152.21,-183.35 152.21,-178.43 152.21,-175.2 148.35,-173.13 142.7,-172.22"/>
<polygon fill="black" stroke="black" stroke-width="0.8" points="142.81,-168.72 132.66,-171.74 142.48,-175.71 142.81,-168.72"/>
<text text-anchor="middle" x="184.71" y="-174.73" font-family="Times,serif" font-size="14.00">0.79999995</text>
</g>
<!-- 15253010036835121515&#45;&gt;9108380693033140644 -->
<g id="edge3" class="edge">
<title>15253010036835121515&#45;&gt;9108380693033140644</title>
<path fill="none" stroke="black" stroke-width="0.1" d="M127.37,-166.12C140.86,-154.66 158.29,-137.44 170.95,-123.16"/>
<polygon fill="black" stroke="black" stroke-width="0.1" points="173.96,-125.03 177.8,-115.16 168.64,-120.49 173.96,-125.03"/>
<text text-anchor="middle" x="140.16" y="-148.44" font-family="Times,serif" font-size="14.00">0.1</text>
</g>
<!-- 9108380693033140644&#45;&gt;9543954270121841530 -->
<g id="edge11" class="edge">
<title>9108380693033140644&#45;&gt;9543954270121841530</title>
<path fill="none" stroke="black" stroke-width="0.1" d="M177.84,-81.32C167.2,-68.31 149.86,-50.48 134.97,-36.99"/>
<polygon fill="black" stroke="black" stroke-width="0.1" points="137.28,-34.36 127.46,-30.39 132.66,-39.62 137.28,-34.36"/>
<text text-anchor="middle" x="147.4" y="-62.95" font-family="Times,serif" font-size="14.00">0.1</text>
</g>
<!-- 9108380693033140644&#45;&gt;15253010036835121515 -->
<g id="edge12" class="edge">
<title>9108380693033140644&#45;&gt;15253010036835121515</title>
<path fill="none" stroke="black" stroke-width="0.1" d="M167.27,-110.52C153.78,-121.98 136.36,-139.2 123.69,-153.48"/>
<polygon fill="black" stroke="black" stroke-width="0.1" points="120.68,-151.61 116.84,-161.48 126,-156.16 120.68,-151.61"/>
<text text-anchor="middle" x="136.48" y="-120.8" font-family="Times,serif" font-size="14.00">0.1</text>
</g>
<!-- 9108380693033140644&#45;&gt;9108380693033140644 -->
<g id="edge10" class="edge">
<title>9108380693033140644&#45;&gt;9108380693033140644</title>
<path fill="none" stroke="black" stroke-width="0.8" d="M212.87,-104.9C223.46,-105.37 232.43,-103.14 232.43,-98.21 232.43,-94.98 228.56,-92.91 222.92,-92"/>
<polygon fill="black" stroke="black" stroke-width="0.8" points="223.03,-88.5 212.87,-91.52 222.69,-95.5 223.03,-88.5"/>
<text text-anchor="middle" x="264.93" y="-94.51" font-family="Times,serif" font-size="14.00">0.79999995</text>
</g>
</g>
</svg>
