<?xml version="1.0" encoding="UTF-8" standalone="no"?>
<!DOCTYPE svg PUBLIC "-//W3C//DTD SVG 1.1//EN"
 "http://www.w3.org/Graphics/SVG/1.1/DTD/svg11.dtd">
<!-- Generated by graphviz version 2.49.2 (0)
 -->
<!-- Pages: 1 -->
<svg width="378pt" height="360pt"
 viewBox="0.00 0.00 378.14 359.69" xmlns="http://www.w3.org/2000/svg" xmlns:xlink="http://www.w3.org/1999/xlink">
<g id="graph0" class="graph" transform="scale(1 1) rotate(0) translate(4 355.69)">
<polygon fill="white" stroke="transparent" points="-4,4 -4,-355.69 374.14,-355.69 374.14,4 -4,4"/>
<!-- 9514348173325862181 -->
<g id="node1" class="node">
<title>9514348173325862181</title>
<ellipse fill="none" stroke="black" cx="131.93" cy="-268.5" rx="27" ry="18"/>
<text text-anchor="middle" x="131.93" y="-264.8" font-family="Times,serif" font-size="14.00">5</text>
</g>
<!-- 5761619195278038434 -->
<g id="node2" class="node">
<title>5761619195278038434</title>
<ellipse fill="none" stroke="black" cx="81.73" cy="-203.87" rx="27" ry="18"/>
<text text-anchor="middle" x="81.73" y="-200.17" font-family="Times,serif" font-size="14.00">6</text>
</g>
<!-- 9514348173325862181&#45;&gt;5761619195278038434 -->
<g id="edge23" class="edge">
<title>9514348173325862181&#45;&gt;5761619195278038434</title>
<path fill="none" stroke="black" stroke-width="0.6" d="M119.26,-252.19C113.57,-244.87 106.74,-236.07 100.47,-228"/>
<polygon fill="black" stroke="black" stroke-width="0.6" points="103.12,-225.7 94.22,-219.95 97.59,-230 103.12,-225.7"/>
<text text-anchor="middle" x="100.87" y="-228.9" font-family="Times,serif" font-size="14.00">0.6</text>
</g>
<!-- 17219070568615611051 -->
<g id="node5" class="node">
<title>17219070568615611051</title>
<ellipse fill="none" stroke="black" cx="59.07" cy="-273.28" rx="27" ry="18"/>
<text text-anchor="middle" x="59.07" y="-269.58" font-family="Times,serif" font-size="14.00">55</text>
</g>
<!-- 9514348173325862181&#45;&gt;17219070568615611051 -->
<g id="edge24" class="edge">
<title>9514348173325862181&#45;&gt;17219070568615611051</title>
<path fill="none" stroke="black" stroke-width="0.4" d="M104.8,-270.28C101.91,-270.47 98.95,-270.67 95.98,-270.86"/>
<polygon fill="black" stroke="black" stroke-width="0.4" points="95.73,-267.37 85.98,-271.52 96.18,-274.36 95.73,-267.37"/>
<text text-anchor="middle" x="95.89" y="-259.37" font-family="Times,serif" font-size="14.00">0.4</text>
</g>
<!-- 12548409172171111871 -->
<g id="node11" class="node">
<title>12548409172171111871</title>
<ellipse fill="none" stroke="black" cx="92.13" cy="-122.69" rx="27" ry="18"/>
<text text-anchor="middle" x="92.13" y="-118.99" font-family="Times,serif" font-size="14.00">7</text>
</g>
<!-- 5761619195278038434&#45;&gt;12548409172171111871 -->
<g id="edge20" class="edge">
<title>5761619195278038434&#45;&gt;12548409172171111871</title>
<path fill="none" stroke="black" stroke-width="0.6" d="M84.04,-185.86C85.36,-175.56 87.04,-162.41 88.53,-150.78"/>
<polygon fill="black" stroke="black" stroke-width="0.6" points="92.03,-151.02 89.83,-140.66 85.09,-150.13 92.03,-151.02"/>
<text text-anchor="middle" x="77.28" y="-172.12" font-family="Times,serif" font-size="14.00">0.6</text>
</g>
<!-- 17842341197370154426 -->
<g id="node12" class="node">
<title>17842341197370154426</title>
<ellipse fill="none" stroke="black" cx="27" cy="-155.54" rx="27" ry="18"/>
<text text-anchor="middle" x="27" y="-151.84" font-family="Times,serif" font-size="14.00">66</text>
</g>
<!-- 5761619195278038434&#45;&gt;17842341197370154426 -->
<g id="edge21" class="edge">
<title>5761619195278038434&#45;&gt;17842341197370154426</title>
<path fill="none" stroke="black" stroke-width="0.4" d="M65.31,-189.37C60.87,-185.45 55.98,-181.13 51.21,-176.92"/>
<polygon fill="black" stroke="black" stroke-width="0.4" points="53.22,-174.03 43.41,-170.03 48.59,-179.28 53.22,-174.03"/>
<text text-anchor="middle" x="58.26" y="-171.95" font-family="Times,serif" font-size="14.00">0.4</text>
</g>
<!-- 5510520460513231734 -->
<g id="node3" class="node">
<title>5510520460513231734</title>
<ellipse fill="none" stroke="black" cx="157.27" cy="-73.22" rx="27" ry="18"/>
<text text-anchor="middle" x="157.27" y="-69.52" font-family="Times,serif" font-size="14.00">8</text>
</g>
<!-- 9108380693033140644 -->
<g id="node7" class="node">
<title>9108380693033140644</title>
<ellipse fill="none" stroke="black" cx="238.48" cy="-82.94" rx="27" ry="18"/>
<text text-anchor="middle" x="238.48" y="-79.24" font-family="Times,serif" font-size="14.00">1</text>
</g>
<!-- 5510520460513231734&#45;&gt;9108380693033140644 -->
<g id="edge5" class="edge">
<title>5510520460513231734&#45;&gt;9108380693033140644</title>
<path fill="none" stroke="black" stroke-width="0.6" d="M183.86,-76.4C189.61,-77.09 195.78,-77.83 201.84,-78.55"/>
<polygon fill="black" stroke="black" stroke-width="0.6" points="201.48,-82.04 211.83,-79.75 202.31,-75.09 201.48,-82.04"/>
<text text-anchor="middle" x="201.85" y="-81.28" font-family="Times,serif" font-size="14.00">0.6</text>
</g>
<!-- 5476749214871837195 -->
<g id="node15" class="node">
<title>5476749214871837195</title>
<ellipse fill="none" stroke="black" cx="205.08" cy="-18" rx="27" ry="18"/>
<text text-anchor="middle" x="205.08" y="-14.3" font-family="Times,serif" font-size="14.00">88</text>
</g>
<!-- 5510520460513231734&#45;&gt;5476749214871837195 -->
<g id="edge6" class="edge">
<title>5510520460513231734&#45;&gt;5476749214871837195</title>
<path fill="none" stroke="black" stroke-width="0.4" d="M170.84,-57.54C175.14,-52.57 180,-46.96 184.67,-41.57"/>
<polygon fill="black" stroke="black" stroke-width="0.4" points="187.41,-43.76 191.31,-33.91 182.11,-39.17 187.41,-43.76"/>
<text text-anchor="middle" x="168.76" y="-38.35" font-family="Times,serif" font-size="14.00">0.4</text>
</g>
<!-- 17128994300635734121 -->
<g id="node4" class="node">
<title>17128994300635734121</title>
<ellipse fill="none" stroke="black" cx="282.39" cy="-301.86" rx="27" ry="18"/>
<text text-anchor="middle" x="282.39" y="-298.16" font-family="Times,serif" font-size="14.00">33</text>
</g>
<!-- 15253010036835121515 -->
<g id="node6" class="node">
<title>15253010036835121515</title>
<ellipse fill="none" stroke="black" cx="213.09" cy="-278.89" rx="27" ry="18"/>
<text text-anchor="middle" x="213.09" y="-275.19" font-family="Times,serif" font-size="14.00">4</text>
</g>
<!-- 17128994300635734121&#45;&gt;15253010036835121515 -->
<g id="edge18" class="edge">
<title>17128994300635734121&#45;&gt;15253010036835121515</title>
<path fill="none" stroke="black" d="M258.15,-293.82C254.59,-292.64 250.86,-291.41 247.14,-290.17"/>
<polygon fill="black" stroke="black" points="248.02,-286.78 237.43,-286.96 245.82,-293.43 248.02,-286.78"/>
<text text-anchor="middle" x="249.15" y="-295.8" font-family="Times,serif" font-size="14.00">1</text>
</g>
<!-- 17219070568615611051&#45;&gt;5761619195278038434 -->
<g id="edge22" class="edge">
<title>17219070568615611051&#45;&gt;5761619195278038434</title>
<path fill="none" stroke="black" d="M64.9,-255.41C67.26,-248.18 70.04,-239.66 72.66,-231.66"/>
<polygon fill="black" stroke="black" points="76.06,-232.52 75.84,-221.93 69.4,-230.35 76.06,-232.52"/>
<text text-anchor="middle" x="65.28" y="-232.33" font-family="Times,serif" font-size="14.00">1</text>
</g>
<!-- 15253010036835121515&#45;&gt;9514348173325862181 -->
<g id="edge2" class="edge">
<title>15253010036835121515&#45;&gt;9514348173325862181</title>
<path fill="none" stroke="black" stroke-width="0.6" d="M186.51,-275.49C180.77,-274.75 174.59,-273.96 168.54,-273.19"/>
<polygon fill="black" stroke="black" stroke-width="0.6" points="168.93,-269.71 158.56,-271.91 168.04,-276.65 168.93,-269.71"/>
<text text-anchor="middle" x="168.53" y="-278.14" font-family="Times,serif" font-size="14.00">0.6</text>
</g>
<!-- 1324720615059849047 -->
<g id="node10" class="node">
<title>1324720615059849047</title>
<ellipse fill="none" stroke="black" cx="164.82" cy="-333.69" rx="27" ry="18"/>
<text text-anchor="middle" x="164.82" y="-329.99" font-family="Times,serif" font-size="14.00">44</text>
</g>
<!-- 15253010036835121515&#45;&gt;1324720615059849047 -->
<g id="edge3" class="edge">
<title>15253010036835121515&#45;&gt;1324720615059849047</title>
<path fill="none" stroke="black" stroke-width="0.4" d="M199.38,-294.45C195.04,-299.38 190.14,-304.95 185.42,-310.3"/>
<polygon fill="black" stroke="black" stroke-width="0.4" points="182.7,-308.09 178.72,-317.91 187.96,-312.71 182.7,-308.09"/>
<text text-anchor="middle" x="201.4" y="-306.18" font-family="Times,serif" font-size="14.00">0.4</text>
</g>
<!-- 9543954270121841530 -->
<g id="node9" class="node">
<title>9543954270121841530</title>
<ellipse fill="none" stroke="black" cx="288.42" cy="-147.8" rx="27" ry="18"/>
<text text-anchor="middle" x="288.42" y="-144.1" font-family="Times,serif" font-size="14.00">2</text>
</g>
<!-- 9108380693033140644&#45;&gt;9543954270121841530 -->
<g id="edge12" class="edge">
<title>9108380693033140644&#45;&gt;9543954270121841530</title>
<path fill="none" stroke="black" stroke-width="0.6" d="M250.82,-98.97C256.48,-106.32 263.32,-115.2 269.6,-123.35"/>
<polygon fill="black" stroke="black" stroke-width="0.6" points="266.99,-125.71 275.87,-131.5 272.54,-121.44 266.99,-125.71"/>
<text text-anchor="middle" x="251.21" y="-114.96" font-family="Times,serif" font-size="14.00">0.6</text>
</g>
<!-- 12353200903459307177 -->
<g id="node14" class="node">
<title>12353200903459307177</title>
<ellipse fill="none" stroke="black" cx="311.29" cy="-78.44" rx="27" ry="18"/>
<text text-anchor="middle" x="311.29" y="-74.74" font-family="Times,serif" font-size="14.00">11</text>
</g>
<!-- 9108380693033140644&#45;&gt;12353200903459307177 -->
<g id="edge13" class="edge">
<title>9108380693033140644&#45;&gt;12353200903459307177</title>
<path fill="none" stroke="black" stroke-width="0.4" d="M265.59,-81.26C268.47,-81.09 271.44,-80.9 274.4,-80.72"/>
<polygon fill="black" stroke="black" stroke-width="0.4" points="274.63,-84.21 284.4,-80.1 274.2,-77.22 274.63,-84.21"/>
<text text-anchor="middle" x="274.5" y="-69.79" font-family="Times,serif" font-size="14.00">0.4</text>
</g>
<!-- 18346284928877751465 -->
<g id="node8" class="node">
<title>18346284928877751465</title>
<ellipse fill="none" stroke="black" cx="343.14" cy="-196.14" rx="27" ry="18"/>
<text text-anchor="middle" x="343.14" y="-192.44" font-family="Times,serif" font-size="14.00">22</text>
</g>
<!-- 10475910883591376841 -->
<g id="node16" class="node">
<title>10475910883591376841</title>
<ellipse fill="none" stroke="black" cx="277.94" cy="-228.97" rx="27" ry="18"/>
<text text-anchor="middle" x="277.94" y="-225.27" font-family="Times,serif" font-size="14.00">3</text>
</g>
<!-- 18346284928877751465&#45;&gt;10475910883591376841 -->
<g id="edge7" class="edge">
<title>18346284928877751465&#45;&gt;10475910883591376841</title>
<path fill="none" stroke="black" d="M321.43,-207.07C317.4,-209.1 313.13,-211.26 308.89,-213.39"/>
<polygon fill="black" stroke="black" points="307.14,-210.35 299.78,-217.98 310.28,-216.61 307.14,-210.35"/>
<text text-anchor="middle" x="311.66" y="-214.03" font-family="Times,serif" font-size="14.00">1</text>
</g>
<!-- 9543954270121841530&#45;&gt;18346284928877751465 -->
<g id="edge15" class="edge">
<title>9543954270121841530&#45;&gt;18346284928877751465</title>
<path fill="none" stroke="black" stroke-width="0.4" d="M304.84,-162.3C309.27,-166.22 314.17,-170.55 318.94,-174.76"/>
<polygon fill="black" stroke="black" stroke-width="0.4" points="316.92,-177.65 326.74,-181.65 321.56,-172.4 316.92,-177.65"/>
<text text-anchor="middle" x="302.89" y="-172.33" font-family="Times,serif" font-size="14.00">0.4</text>
</g>
<!-- 9543954270121841530&#45;&gt;10475910883591376841 -->
<g id="edge14" class="edge">
<title>9543954270121841530&#45;&gt;10475910883591376841</title>
<path fill="none" stroke="black" stroke-width="0.6" d="M286.09,-165.81C284.76,-176.11 283.07,-189.25 281.56,-200.88"/>
<polygon fill="black" stroke="black" stroke-width="0.6" points="278.07,-200.64 280.26,-211.01 285.01,-201.54 278.07,-200.64"/>
<text text-anchor="middle" x="274.83" y="-187.15" font-family="Times,serif" font-size="14.00">0.6</text>
</g>
<!-- 1324720615059849047&#45;&gt;9514348173325862181 -->
<g id="edge1" class="edge">
<title>1324720615059849047&#45;&gt;9514348173325862181</title>
<path fill="none" stroke="black" d="M156.18,-316.56C152.8,-309.88 148.86,-302.07 145.15,-294.7"/>
<polygon fill="black" stroke="black" points="148.25,-293.09 140.63,-285.74 142.01,-296.25 148.25,-293.09"/>
<text text-anchor="middle" x="147.16" y="-294.43" font-family="Times,serif" font-size="14.00">1</text>
</g>
<!-- 12548409172171111871&#45;&gt;5510520460513231734 -->
<g id="edge10" class="edge">
<title>12548409172171111871&#45;&gt;5510520460513231734</title>
<path fill="none" stroke="black" stroke-width="0.6" d="M110.27,-108.91C116.77,-103.98 124.22,-98.32 131.25,-92.98"/>
<polygon fill="black" stroke="black" stroke-width="0.6" points="133.37,-95.76 139.22,-86.92 129.14,-90.18 133.37,-95.76"/>
<text text-anchor="middle" x="111.76" y="-89.74" font-family="Times,serif" font-size="14.00">0.6</text>
</g>
<!-- 5144940365831648719 -->
<g id="node13" class="node">
<title>5144940365831648719</title>
<ellipse fill="none" stroke="black" cx="88.06" cy="-49.77" rx="27" ry="18"/>
<text text-anchor="middle" x="88.06" y="-46.07" font-family="Times,serif" font-size="14.00">77</text>
</g>
<!-- 12548409172171111871&#45;&gt;5144940365831648719 -->
<g id="edge11" class="edge">
<title>12548409172171111871&#45;&gt;5144940365831648719</title>
<path fill="none" stroke="black" stroke-width="0.4" d="M91.12,-104.66C90.67,-96.6 90.13,-86.91 89.63,-77.92"/>
<polygon fill="black" stroke="black" stroke-width="0.4" points="93.12,-77.63 89.07,-67.84 86.13,-78.02 93.12,-77.63"/>
<text text-anchor="middle" x="81.38" y="-80.09" font-family="Times,serif" font-size="14.00">0.4</text>
</g>
<!-- 17842341197370154426&#45;&gt;12548409172171111871 -->
<g id="edge19" class="edge">
<title>17842341197370154426&#45;&gt;12548409172171111871</title>
<path fill="none" stroke="black" d="M48.69,-144.6C52.71,-142.57 56.98,-140.42 61.21,-138.28"/>
<polygon fill="black" stroke="black" points="62.96,-141.32 70.31,-133.69 59.81,-135.07 62.96,-141.32"/>
<text text-anchor="middle" x="58.45" y="-145.24" font-family="Times,serif" font-size="14.00">1</text>
</g>
<!-- 5144940365831648719&#45;&gt;5510520460513231734 -->
<g id="edge8" class="edge">
<title>5144940365831648719&#45;&gt;5510520460513231734</title>
<path fill="none" stroke="black" d="M112.27,-57.97C115.83,-59.18 119.55,-60.44 123.26,-61.7"/>
<polygon fill="black" stroke="black" points="122.36,-65.09 132.96,-64.98 124.61,-58.46 122.36,-65.09"/>
<text text-anchor="middle" x="121.26" y="-63.63" font-family="Times,serif" font-size="14.00">1</text>
</g>
<!-- 12353200903459307177&#45;&gt;9543954270121841530 -->
<g id="edge4" class="edge">
<title>12353200903459307177&#45;&gt;9543954270121841530</title>
<path fill="none" stroke="black" d="M305.4,-96.3C303.02,-103.52 300.21,-112.03 297.57,-120.03"/>
<polygon fill="black" stroke="black" points="294.17,-119.16 294.37,-129.75 300.82,-121.35 294.17,-119.16"/>
<text text-anchor="middle" x="297.99" y="-111.97" font-family="Times,serif" font-size="14.00">1</text>
</g>
<!-- 5476749214871837195&#45;&gt;9108380693033140644 -->
<g id="edge9" class="edge">
<title>5476749214871837195&#45;&gt;9108380693033140644</title>
<path fill="none" stroke="black" d="M213.86,-35.06C217.28,-41.72 221.28,-49.51 225.05,-56.84"/>
<polygon fill="black" stroke="black" points="221.96,-58.47 229.65,-65.77 228.19,-55.27 221.96,-58.47"/>
<text text-anchor="middle" x="215.96" y="-49.75" font-family="Times,serif" font-size="14.00">1</text>
</g>
<!-- 10475910883591376841&#45;&gt;17128994300635734121 -->
<g id="edge17" class="edge">
<title>10475910883591376841&#45;&gt;17128994300635734121</title>
<path fill="none" stroke="black" stroke-width="0.4" d="M279.04,-246.99C279.53,-255.05 280.12,-264.74 280.67,-273.72"/>
<polygon fill="black" stroke="black" stroke-width="0.4" points="277.19,-274.03 281.29,-283.79 284.17,-273.6 277.19,-274.03"/>
<text text-anchor="middle" x="270.86" y="-264.15" font-family="Times,serif" font-size="14.00">0.4</text>
</g>
<!-- 10475910883591376841&#45;&gt;15253010036835121515 -->
<g id="edge16" class="edge">
<title>10475910883591376841&#45;&gt;15253010036835121515</title>
<path fill="none" stroke="black" stroke-width="0.6" d="M260.22,-242.61C253.64,-247.67 246.04,-253.53 238.89,-259.03"/>
<polygon fill="black" stroke="black" stroke-width="0.6" points="236.58,-256.39 230.79,-265.27 240.85,-261.94 236.58,-256.39"/>
<text text-anchor="middle" x="240.55" y="-239.62" font-family="Times,serif" font-size="14.00">0.6</text>
</g>
</g>
</svg>
